<svg xmlns="http://www.w3.org/2000/svg" viewBox="0 0 266 260.67"><ellipse cx="87.26" cy="143.89" rx="9.5" ry="12.3"/><ellipse cx="181.34" cy="145.34" rx="9.5" ry="12.3"/><path d="M260.67 63.56a40.93 40.93 0 0 0-73.16-25.27 110.8 110.8 0 0 0-106.85 3.42A41 41 0 1 0 31.82 102a111.16 111.16 0 1 0 209.46-3.65 41.14 41.14 0 0 0 19.39-34.79zm-244.61 0a29.95 29.95 0 0 1 55.41-15.77 111.82 111.82 0 0 0-35.61 44 29.86 29.86 0 0 1-19.8-28.23zm121.13 174a100.15 100.15 0 1 1 100.15-100.19 100.26 100.26 0 0 1-100.15 100.15zm60-193.67a29.91 29.91 0 1 1 39.61 44.19 111.93 111.93 0 0 0-39.62-44.22z"/><path d="M157.31 200c-4.52 1.64-10.58 3-13.83.28-2-1.66-2.75-4.61-3-7.44a33.38 33.38 0 0 0 0-4.22c8-1.08 14.08-6.43 14.08-12.9 0-7.25-7.61-13.13-17-13.13s-17 5.88-17 13.13c0 6 5.32 11.09 12.53 12.61v.19a33.29 33.29 0 0 0 0 4.26c-.24 2.84-1 5.83-3 7.49-3.25 2.75-9.32 1.37-13.84-.28a3.67 3.67 0 1 0-2.51 6.91 33.38 33.38 0 0 0 11.26 2.31 14.77 14.77 0 0 0 9.87-3.31 13.78 13.78 0 0 0 1.93-2.06 13.23 13.23 0 0 0 1.93 2.06 14.75 14.75 0 0 0 9.87 3.31 33.45 33.45 0 0 0 11.24-2.29 3.68 3.68 0 1 0-2.52-6.91z"/></svg>