<svg xmlns="http://www.w3.org/2000/svg" viewBox="0 0 266 260.67"><path d="M185.36 112.49l-62.55-44.71 29.56-42.29 8.28 5.78-23.84 34.1 46.16 33 49.94-70.66 8.25 5.83-55.8 78.95z"/><path d="M86.73 257.18a11.06 11.06 0 0 1-6.47-2.08l-57.08-40.8a11.24 11.24 0 0 1-2.64-15.6l95-134.41a11.18 11.18 0 0 1 9.12-4.71 11.07 11.07 0 0 1 6.48 2.08l57.07 40.8a11.25 11.25 0 0 1 2.64 15.6l-95 134.41a11.18 11.18 0 0 1-9.12 4.71zm37.95-187.51a1.06 1.06 0 0 0-.87.44l-95 134.41a1.15 1.15 0 0 0 .26 1.56l57.07 40.8a1 1 0 0 0 .6.19 1.06 1.06 0 0 0 .87-.44l95-134.41a1.15 1.15 0 0 0-.27-1.56l-57.07-40.8a1 1 0 0 0-.59-.19zm59.68-17.28c-19.7 0-33-6.2-34.62-16.18-2.47-14.9 20.36-26.71 44.2-30.67A104.76 104.76 0 0 1 211 4.09c19.7 0 33 6.2 34.62 16.17 2.47 14.9-20.36 26.7-44.2 30.67a104.88 104.88 0 0 1-17.06 1.46zM211 14.18a94.64 94.64 0 0 0-15.46 1.32c-22.85 3.8-36.74 14-35.89 19.05.53 3.21 8.54 7.74 24.66 7.74A94.42 94.42 0 0 0 199.82 41c22.85-3.8 36.74-14 35.89-19.05-.53-3.24-8.54-7.77-24.71-7.77z"/><path d="M51.689 157.132l5.939-8.157 66.645 48.527-5.94 8.157z"/></svg>