<svg xmlns="http://www.w3.org/2000/svg" viewBox="0 0 266 260.67"><path d="M253.32 14.74A6.46 6.46 0 0 0 247.54 9c-38.66-3.44-79.38 1.72-80 1.82C122.95 17.51 87.82 33.43 63.21 58s-40.53 59.68-47.26 104.32a317.79 317.79 0 0 0-1.77 80 6.74 6.74 0 0 0 5.82 5.83c44.25 5.35 64.71.53 80-1.82 44.64-6.74 79.76-22.65 104.33-47.26s40.53-59.69 47.26-104.33c-.04-.05 5.07-45.69 1.73-80zM27 235.29a321 321 0 0 1 .57-57.44l56.87 56.87c-10.44 1.05-31.65 3.53-57.44.57zm167.74-45.78c-21.94 21.94-53.38 36.37-93.48 42.92L29.81 161c6.6-40.14 21-71.59 43-93.48s53.33-36.37 93.48-43L237.69 96c-6.59 40.18-21.03 71.62-42.96 93.51zm45.21-110.3l-56.88-56.87a255.46 255.46 0 0 1 57.44-.57 321 321 0 0 1-.57 57.44z"/><path d="M160.08 85.47a6.72 6.72 0 0 0-9.51 9.53l3.58 3.58L143.74 109l-3.58-3.58a6.72 6.72 0 0 0-9.51 9.51l3.58 3.58-10.42 10.42-3.58-3.58a6.72 6.72 0 0 0-9.51 9.51l3.58 3.58-10.47 10.51-3.58-3.58a6.72 6.72 0 1 0-9.51 9.51l3.58 3.58-8.55 8.54a6.72 6.72 0 1 0 9.51 9.51l8.55-8.55 3.58 3.58c1.82 1.82 5.64 3.87 9.51 0a6.72 6.72 0 0 0 0-9.51l-3.58-3.58L123.76 148l3.58 3.58c1.82 1.82 5.64 3.87 9.51 0a6.72 6.72 0 0 0 0-9.51l-3.58-3.58 10.42-10.42 3.58 3.58c1.82 1.82 5.64 3.87 9.51 0a6.72 6.72 0 0 0 0-9.51l-3.58-3.58 10.42-10.42 3.58 3.58c1.82 1.82 5.64 3.87 9.51 0a6.72 6.72 0 0 0 0-9.51l-3.58-3.58 8.55-8.55a6.72 6.72 0 1 0-9.51-9.51l-8.55 8.55z"/></svg>