<svg xmlns="http://www.w3.org/2000/svg" viewBox="0 0 266 260.67"><path d="M159.12 117.79L85.87 56.18a3.6 3.6 0 0 0-4.61 0l-73.93 61.6a3.59 3.59 0 1 0 4.6 5.52l3.35-2.79v80.12a3.59 3.59 0 0 0 3.59 3.59h129.38a3.59 3.59 0 0 0 3.59-3.59v-79.57l2.65 2.23a3.59 3.59 0 1 0 4.63-5.5zM101 197H65.42v-51.65H101zm43.64 0H108.2v-55.24a3.59 3.59 0 0 0-3.59-3.59H61.83a3.59 3.59 0 0 0-3.59 3.59V197H22.47v-82.48l61.08-50.9 61.1 51.4zM256 110.57a19.24 19.24 0 0 0-4.61-3.46 18.17 18.17 0 0 0 3.45-2.53c5.77-5.41 5.69-12.72 5.66-16.23v-.66a19.07 19.07 0 0 0-3.7-11.3c-2.34-3-6.89-6.67-15.3-6.67a17.6 17.6 0 0 0-9 2.57c-.15-4.64-2.14-8.12-4.68-11.78l-.14-.21a20 20 0 0 0-18.18-8 15.4 15.4 0 0 0-12.77 10.19 23.53 23.53 0 0 0-1.2 10.51c-5.54-3.6-13.92-6.17-21.33-.09-5.15 4.23-8.15 9.77-8.47 15.6a17.86 17.86 0 0 0 4.76 13.31 18.66 18.66 0 0 0 4.87 3.43c-7.18 4-9.31 13-9.31 18.36 0 1.82 2.19 10.75 8.41 15.84a14.41 14.41 0 0 0 12.32 3.09 24 24 0 0 0 8.74-3.8c-.05 1-.06 2 0 3.13a18.2 18.2 0 0 0 11.89 16.83v46.67h12.83v-47.94a17.15 17.15 0 0 0 9.87-9.07 22.26 22.26 0 0 0 1.69-9.64 14.4 14.4 0 0 0 3.37 1.63c1.67.72 10 4 17 .12 4.71-2.62 7.54-7.68 8.41-15.06.62-6.04-.88-11.03-4.58-14.84zm-26.93-25c2.95-4.23 7.26-8.61 12.44-8.61 11 0 11.81 8.25 11.81 10.78v.73c0 2.87.08 7.66-3.39 10.91-2.54 2.38-6.61 3.73-12.14 4-1.49-.13-2.84-.19-4-.2a20.38 20.38 0 0 0-7.52-12.38q1.65-2.8 2.81-5.28zm-28.46 21.33a13.18 13.18 0 1 1 13.18 13.1 13.19 13.19 0 0 1-13.18-13.15zm2.85-41.9a8.18 8.18 0 0 1 6.92-5.62 12.73 12.73 0 0 1 11.41 5l.15.21c1.88 2.7 3.36 4.83 3.38 8.05 0 2.47-.8 5.52-2.48 9.21a51.72 51.72 0 0 0-3.23 5.46 20.31 20.31 0 0 0-11.64 0 31.91 31.91 0 0 0-2.35-3.91c-2.3-5.59-4.23-12.98-2.16-18.4zm-30.55 23.92c.15-2.69 1.28-6.68 5.86-10.44 6.92-5.69 15.37 2.5 15.73 2.86a50.55 50.55 0 0 1 4.84 5.66c.64 1.49 1.27 2.81 1.82 3.88a20.38 20.38 0 0 0-7.34 12c-6.44-.84-15-2.87-18.18-6.1a10.57 10.57 0 0 1-2.73-7.86zm24.75 38.17c-2.76 3.27-7.13 7.38-12.3 8.41a7.17 7.17 0 0 1-5.92-1.26c-3.94-2.86-6-9.19-6.21-10.73a20.36 20.36 0 0 1 1.68-7.41c1.78-3.86 4.57-5.66 8.76-5.66h10.08a20.36 20.36 0 0 0 6.9 11.94 30.63 30.63 0 0 0-1.85 3.3c-.36.46-.74.93-1.14 1.4zm25.85 18.34c-3 6.63-11.91 6.56-13.8 6.47a11.88 11.88 0 0 1-3.24-1.93 10.82 10.82 0 0 1-3.81-8.32 27.43 27.43 0 0 1 2.26-12.15c.93-1.24 1.72-2.4 2.33-3.37a20.3 20.3 0 0 0 14.25-.44c.27.65.55 1.28.85 1.88 1.79 5.49 3.34 13.02 1.17 17.85zm29.84-20.85c-.58 4.94-2.17 8.17-4.74 9.6-3.61 2-9 .35-10.71-.46a3.56 3.56 0 0 0-.58-.21c-.06 0-4.63-1.48-8.22-8.46-.45-1.33-.89-2.5-1.28-3.46a20.34 20.34 0 0 0 6-11h3.85c4.62.47 10.09 1.8 13.19 5 2.14 2.19 2.95 5.13 2.5 8.98z"/></svg>