<svg xmlns="http://www.w3.org/2000/svg" viewBox="0 0 266 260.67"><path d="M253.39 124c-.19-.27-18.57-26.88-29.79-45.56-8.47-14.13-25.93-19.8-26.66-20l-.43-.12-24.28-6.07a7.22 7.22 0 0 0-8.34 4.06l-25-8.25v-4.6c.14-1.42 2.86-5.31 4.49-7.64 3.28-4.68 6.67-9.52 6.67-14.51a17.2 17.2 0 1 0-34.41 0 6 6 0 0 0 12.08 0 5.12 5.12 0 0 1 10.24 0c-.14 1.42-2.86 5.31-4.49 7.64-3.28 4.68-6.68 9.53-6.68 14.51v5.14l-24.07 7.94A7.22 7.22 0 0 0 94.2 52l-25 6.26-.43.12c-.74.23-18.18 5.91-26.67 20C30.84 97.14 12.45 123.76 12.26 124a7.25 7.25 0 0 0 2.19 10.31l33.24 20.28a7.26 7.26 0 0 0 9.8-2.15l6.17-9.21v102.95a7.25 7.25 0 0 0 7.25 7.25h123.82a7.25 7.25 0 0 0 7.25-7.25V143.27l6.17 9.21a7.24 7.24 0 0 0 9.8 2.15l33.24-20.28a7.26 7.26 0 0 0 2.2-10.35zm-37.06 14.61l-15.57-23.22a7.25 7.25 0 0 0-13.27 4v119.54H78.16V119.45a7.25 7.25 0 0 0-13.27-4l-15.57 23.18-20.8-12.69c6.22-9.15 17.78-26.39 26-40 5.28-8.79 17-13.1 18.46-13.62l18.75-4.69c5.41 9.86 18 21.87 41.13 21.87 25.28 0 36.9-13.4 41.68-21.73l18.2 4.55c1.5.53 13.2 4.86 18.47 13.62 8.18 13.63 19.74 30.87 26 40zm-82.67-79.55L157 66.74C152.37 71 144.87 75 132.83 75c-11.66 0-18.89-3.85-23.34-8z"/></svg>