<?xml version="1.0" standalone="no"?>
<!DOCTYPE svg PUBLIC "-//W3C//DTD SVG 1.1//EN" "http://www.w3.org/Graphics/SVG/1.1/DTD/svg11.dtd" >
<svg xmlns="http://www.w3.org/2000/svg">
<metadata>Generated by IcoMoon</metadata>
<defs>
<font id="hellospecial-5" horiz-adv-x="1024">
<font-face units-per-em="1024" ascent="960" descent="-64" />
<missing-glyph horiz-adv-x="1024" />
<glyph unicode="&#x20;" horiz-adv-x="512" d="" />
<glyph unicode="&#xe900;" glyph-name="keyboard_arrow_right" d="M220 54.667l392 392-392 392 120 120 512-512-512-512z" />
<glyph unicode="&#xe901;" glyph-name="keyboard_arrow_down" d="M120 782.667l392-392 392 392 120-120-512-512-512 512z" />
<glyph unicode="&#xe902;" glyph-name="notice" d="M496 848c-229.76 0-416-186.24-416-416s186.24-416 416-416 416 186.24 416 416-186.24 416-416 416zM496 196c-26.528 0-48 21.504-48 48s21.472 48 48 48c26.496 0 48-21.504 48-48s-21.504-48-48-48zM544 404c0-26.496-21.504-48-48-48-26.528 0-48 21.504-48 48v224c0 26.528 21.472 48 48 48 26.496 0 48-21.472 48-48v-224z" />
<glyph unicode="&#xe903;" glyph-name="mode_sieraden" horiz-adv-x="1045" d="M995.402 472.886c-0.746 1.061-72.949 105.594-117.025 178.975-33.273 55.507-101.862 77.781-104.73 78.567l-1.689 0.471-95.38 23.845c-2.062 0.536-4.428 0.844-6.867 0.844-11.474 0-21.357-6.814-25.823-16.615l-0.072-0.178-98.208 32.409v18.070c0.55 5.578 11.235 20.859 17.638 30.013 12.885 18.385 26.202 37.398 26.202 57 0 37.327-30.26 67.587-67.587 67.587s-67.587-30.26-67.587-67.587v0c0-13.104 10.623-23.727 23.727-23.727s23.727 10.623 23.727 23.727v0c0 11.108 9.005 20.113 20.113 20.113s20.113-9.005 20.113-20.113v0c-0.55-5.578-11.235-20.859-17.638-30.013-12.885-18.385-26.241-37.437-26.241-57v-20.192l-94.555-31.191c-4.079 10.982-14.469 18.666-26.654 18.666-2.42 0-4.769-0.303-7.012-0.873l0.196 0.042-99.898-25.063c-2.907-0.904-71.417-23.216-104.769-78.567-44.233-73.696-116.475-178.268-117.222-179.211-3.159-4.521-5.047-10.134-5.047-16.187 0-10.245 5.409-19.226 13.528-24.244l0.122-0.070 130.578-79.667c4.225-2.612 9.347-4.16 14.831-4.16 9.815 0 18.472 4.958 23.603 12.506l0.064 0.099 24.238 36.18v-404.422c0-15.729 12.751-28.48 28.48-28.48v0h486.407c15.729 0 28.48 12.751 28.48 28.48v0 404.265l24.238-36.18c5.176-7.662 13.829-12.633 23.643-12.633 5.495 0 10.626 1.558 14.976 4.257l-0.121-0.070 130.578 79.667c8.291 5.087 13.738 14.102 13.738 24.39 0 6.087-1.907 11.728-5.156 16.36l0.061-0.091zM849.817 415.493l-61.164 91.216c-5.186 7.65-13.838 12.61-23.649 12.61-15.674 0-28.391-12.662-28.48-28.315v-469.602h-429.485v469.358c-0.089 15.662-12.806 28.324-28.48 28.324-9.811 0-18.463-4.961-23.585-12.511l-0.064-0.1-61.164-91.059-81.709 49.851c24.434 35.944 69.846 103.669 102.137 157.134 20.742 34.53 66.782 51.461 72.517 53.504l73.656 18.424c21.252-38.733 70.71-85.913 161.573-85.913 99.308 0 144.956 52.64 163.733 85.363l71.496-17.874c5.893-2.082 51.854-19.092 72.556-53.504 32.134-53.543 77.545-121.268 102.137-157.134zM525.062 727.992l91.687-30.17c-18.188-16.735-47.651-32.448-94.948-32.448-45.804 0-74.206 15.124-91.687 31.427z" />
<glyph unicode="&#xe904;" glyph-name="huis_tuin" horiz-adv-x="1045" d="M629.442 499.378l-299.995 252.323c-2.538 2.127-5.838 3.419-9.44 3.419s-6.903-1.292-9.463-3.437l0.023 0.019-302.78-252.283c-3.245-2.718-5.294-6.771-5.294-11.303 0-8.127 6.588-14.714 14.714-14.714 3.594 0 6.887 1.289 9.442 3.429l-0.023-0.019 13.72 11.426v-328.13c0-8.12 6.583-14.703 14.703-14.703v0h529.874c8.12 0 14.703 6.583 14.703 14.703v0 325.878l10.853-9.133c2.543-2.152 5.859-3.459 9.481-3.459 8.131 0 14.722 6.591 14.722 14.722 0 4.509-2.027 8.545-5.219 11.245l-0.022 0.018zM391.412 174.974h-145.717v211.532h145.717zM570.139 174.974h-149.24v226.235c0 8.12-6.583 14.703-14.703 14.703v0h-175.205c-8.12 0-14.703-6.583-14.703-14.703v-226.235h-146.496v337.796l250.153 208.46 250.234-210.509zM1026.214 528.948c-5.423 5.517-11.64 10.232-18.469 13.965l-0.412 0.206c5.359 3.061 9.991 6.492 14.171 10.4l-0.043-0.040c23.631 22.156 23.303 52.094 23.18 66.47 0 0.983 0 1.884 0 2.703 0 0.015 0 0.031 0 0.048 0 17.395-5.687 33.462-15.303 46.443l0.149-0.212c-9.583 12.286-28.218 27.317-62.661 27.317-13.647-0.127-26.357-4.026-37.17-10.704l0.31 0.178c-0.614 19.003-8.765 33.255-19.167 48.245l-0.573 0.86c-15.087 20.245-38.961 33.216-65.864 33.216-3.027 0-6.014-0.164-8.956-0.484l0.364 0.032c-24.329-2.874-44.22-19.232-52.161-41.293l-0.139-0.44c-3.503-9.58-5.53-20.64-5.53-32.174 0-3.83 0.223-7.607 0.658-11.321l-0.043 0.451c-22.689 14.744-57.009 25.269-87.356 0.369-21.092-17.324-33.378-40.013-34.689-63.89-0.094-1.386-0.147-3.005-0.147-4.635 0-19.297 7.472-36.848 19.68-49.918l-0.039 0.043c5.693-5.568 12.273-10.263 19.5-13.848l0.445-0.2c-29.405-16.382-38.129-53.241-38.129-75.193 0-7.454 8.969-44.027 34.443-64.873 10.211-8.68 23.547-13.96 38.116-13.96 4.371 0 8.631 0.475 12.732 1.377l-0.391-0.072c13.612 2.964 25.614 8.366 36.104 15.77l-0.31-0.207c-0.204-4.095-0.246-8.191 0-12.819 0.432-31.492 20.328-58.229 48.183-68.757l0.513-0.17v-191.137h52.546v196.338c18.103 6.566 32.427 19.825 40.242 36.711l0.18 0.435c4.443 10.366 7.027 22.43 7.027 35.097 0 1.542-0.039 3.074-0.114 4.598l0.008-0.215c3.972-2.646 8.537-4.906 13.386-6.553l0.415-0.123c6.839-2.948 40.955-16.382 69.624-0.491 19.289 10.73 30.88 31.454 34.443 61.678 2.54 24.737-3.604 45.174-18.758 60.778zM915.922 631.335c12.082 17.324 29.734 35.262 50.948 35.262 45.051 0 48.368-33.788 48.368-44.149 0-0.942 0-1.925 0-2.99 0-11.754 0.327-31.371-13.884-44.682-10.403-9.747-27.071-15.276-49.719-16.382-6.102 0.533-11.631 0.778-16.382 0.819-3.921 20.727-15.044 38.353-30.617 50.565l-0.181 0.138q6.758 11.467 11.509 21.625zM799.364 543.978c-0.001 0.097-0.001 0.213-0.001 0.327 0 29.812 24.167 53.979 53.979 53.979s53.979-24.167 53.979-53.979c0-29.811-24.166-53.978-53.977-53.979v0c-29.76 0.023-53.885 24.107-53.978 53.847v0.009zM811.036 715.579c4.112 12.456 15 21.559 28.192 23.004l0.149 0.014c1.534 0.161 3.314 0.251 5.116 0.251 16.942 0 31.998-8.082 41.521-20.601l0.094-0.128 0.614-0.86c7.699-11.058 13.761-19.781 13.843-32.969 0-10.116-3.277-22.607-10.157-37.719-4.334-6.288-8.726-13.603-12.672-21.188l-0.556-1.174c-7.134 2.213-15.336 3.488-23.836 3.488s-16.702-1.275-24.425-3.644l0.589 0.155c-3.165 6.196-6.361 11.436-9.897 16.418l0.272-0.405c-9.419 22.893-17.324 53.16-8.846 75.357zM685.919 617.615c0.614 11.017 5.242 27.358 24 42.757 28.341 23.303 62.948-10.239 64.422-11.713 6.991-7.049 13.491-14.613 19.427-22.621l0.396-0.559c2.621-6.102 5.201-11.509 7.454-15.891-15.178-12.087-25.973-29.108-29.969-48.608l-0.092-0.538c-26.375 3.44-61.432 11.754-74.456 24.983-7 7.663-11.288 17.907-11.288 29.152 0 1.070 0.039 2.129 0.115 3.179l-0.008-0.141zM787.282 461.289c-11.303-13.393-29.201-30.225-50.375-34.443-1.977-0.474-4.247-0.746-6.581-0.746-6.664 0-12.809 2.22-17.737 5.96l0.073-0.053c-16.137 11.713-24.573 37.637-25.433 43.945 0.401 11.056 2.894 21.431 7.091 30.879l-0.211-0.532c7.29 15.808 18.717 23.18 35.876 23.18h41.283c3.649-19.739 13.814-36.646 28.138-48.801l0.12-0.099c-2.477-3.767-4.999-8.192-7.249-12.776l-0.327-0.738c-1.474-1.884-3.031-3.808-4.669-5.734zM893.151 386.179c-12.286-27.153-48.778-26.867-56.518-26.497-5.087 2.048-9.473 4.71-13.344 7.965l0.074-0.060c-9.574 8.179-15.605 20.263-15.605 33.757 0 0.112 0 0.223 0.001 0.335v-0.017c-0.067 1.451-0.105 3.154-0.105 4.865 0 16.239 3.446 31.673 9.646 45.611l-0.284-0.715c3.808 5.078 7.045 9.829 9.542 13.802 7.985-2.809 17.192-4.431 26.778-4.431 11.391 0 22.246 2.29 32.13 6.437l-0.548-0.204c1.106-2.662 2.253-5.242 3.481-7.699 7.331-22.485 13.679-53.323 4.792-73.105zM1015.361 471.57c-2.375-20.232-8.887-33.461-19.412-39.317-14.784-8.191-36.859-1.434-43.863 1.884-0.665 0.319-1.454 0.612-2.273 0.836l-0.102 0.024c-0.246 0-18.962 6.061-33.665 34.648-1.843 5.447-3.645 10.239-5.242 14.17 12.369 11.735 21.123 27.169 24.488 44.526l0.084 0.524c5.447 0 10.73 0 15.768 0 18.921-1.925 41.324-7.372 54.020-20.478 8.765-8.969 12.082-21.009 10.239-36.777z" />
<glyph unicode="&#xe905;" glyph-name="brand-facebook" d="M967.488 960h-910.976c-31.232 0-56.512-25.28-56.512-56.512v-910.976c0-31.232 25.28-56.512 56.512-56.512h490.432v396.544h-133.504v154.496h133.504v114.112c0 132.224 80.768 204.16 198.784 204.16 56.512 0 105.088-4.096 119.232-6.016v-138.24h-81.92c-64 0-76.48-30.72-76.48-75.52v-98.56h152.96l-19.84-154.88h-133.12v-396.096h260.928c31.232 0 56.512 25.28 56.512 56.512v910.976c0 31.232-25.28 56.512-56.512 56.512z" />
<glyph unicode="&#xe906;" glyph-name="brand-google-plus" d="M325.76 494.528v-111.68h184.96c-7.424-48-55.872-140.608-184.768-140.608-111.168 0-201.92 92.16-201.92 205.76s90.56 205.76 201.728 205.76c63.36 0 105.728-27.008 129.92-50.304l88.448 85.12c-56.768 53.12-130.368 85.12-218.24 85.12-180.288 0.064-325.888-145.856-325.888-325.696s145.664-325.76 325.76-325.76c188.16 0 312.832 132.16 312.832 318.336 0 21.376-2.304 37.76-5.12 53.952h-307.712zM1024 494.528h-93.12v93.12h-93.12v-93.12h-93.056v-93.056h93.12v-93.12h93.44v93.12h92.736z" />
<glyph unicode="&#xe907;" glyph-name="brand-linkedin" d="M872.448 87.36h-151.68v237.632c0 56.704-1.152 129.6-78.976 129.6-79.040 0-91.136-61.696-91.136-125.44v-241.792h-151.68v488.64h145.664v-66.56h1.92c20.352 38.4 69.888 78.912 143.808 78.912 153.6 0 182.080-101.12 182.080-232.768v-268.032zM227.712 642.88c-48.768 0-88.064 39.488-88.064 88.128 0 48.512 39.296 88 88.064 88 48.64 0 88.064-39.488 88.064-88 0-48.64-39.488-88.128-88.064-88.128zM303.744 87.36h-152.064v488.64h152.064v-488.64zM948.224 960h-872.704c-41.728 0-75.52-33.024-75.52-73.792v-876.416c0-40.768 33.792-73.792 75.52-73.792h872.64c41.728 0 75.84 33.024 75.84 73.792v876.416c0 40.768-34.112 73.792-75.84 73.792z" />
<glyph unicode="&#xe908;" glyph-name="brand-twitter" d="M1024 765.568c-37.76-16.64-78.080-27.968-120.64-33.088 43.328 26.048 76.672 67.2 92.352 116.224-40.576-23.68-85.568-40.96-133.44-50.56-38.272 40.96-92.8 66.56-153.344 66.56-115.968 0-210.048-94.080-210.048-209.92 0-16.64 1.92-32.64 5.44-48-174.592 8.32-329.408 92.16-433.024 218.88-18.176-30.784-28.416-66.624-28.416-105.664 0-72.96 37.12-137.152 93.44-174.848-34.432 1.088-66.88 10.56-95.168 26.24v-2.56c0-101.76 72.32-186.752 168.512-206.080-17.664-4.736-36.224-7.296-55.36-7.296-13.44 0-26.24 1.28-39.040 3.712 26.88-83.456 104.32-144.192 196.48-145.92-71.68-56.32-162.56-89.856-260.48-89.856-16.64 0-33.28 0.96-49.92 2.88 93.44-59.52 203.52-94.336 322.56-94.336 386.56 0 597.76 320 597.76 597.12 0 8.96 0 17.92-0.64 26.88 40.96 29.44 76.8 66.56 104.96 108.8z" />
<glyph unicode="&#xe909;" glyph-name="gadgets_elektronica" horiz-adv-x="1045" d="M1027.732 841.364c-0.97 13.067-11.797 23.306-25.021 23.334h-958.046c-13.227-0.029-24.053-10.267-25.019-23.251l-0.005-0.083-0.196-647.39c0-13.929 11.291-25.22 25.22-25.22v0h958.043c13.929 0 25.22 11.291 25.22 25.22v0zM987.584 289.865h-927.795v534.49h927.795zM685.024 47.84c-40.344 10.096-50.44 40.344-50.44 80.688v10.057h-221.833v-10.096c0-40.344-10.096-70.71-50.44-80.688-9.782-2.436-10.096-20.152 0-20.152h322.713c10.096 0 9.782 17.717 0 20.192z" />
<glyph unicode="&#xe90a;" glyph-name="hobby_vrije_tijd" horiz-adv-x="1045" d="M995.127 902.096c-1.316 11.94-10.747 21.317-22.597 22.54l-0.109 0.009c-151.87 13.513-311.832-6.757-314.267-7.15-175.165-26.281-313.167-88.82-409.844-185.339s-159.216-234.443-185.653-409.804c-8.727-55.457-13.713-119.41-13.713-184.528 0-45.699 2.455-90.824 7.242-135.25l-0.482 5.511c1.57-11.95 10.918-21.311 22.728-22.887l0.135-0.015c173.829-21.017 254.203-2.082 314.267 7.15 175.361 26.477 313.324 88.977 409.844 185.653s159.216 234.483 185.653 409.844c-0.157 0.196 19.917 179.486 6.796 314.267zM106.065 35.701c-2.548 30.053-4 65.036-4 100.359 0 44.123 2.266 87.716 6.688 130.67l-0.449-5.386 223.405-223.405c-41.012-4.125-124.332-13.867-225.644-2.239zM765.005 215.541c-86.188-86.188-209.695-142.874-367.221-168.604l-280.68 280.601c25.927 157.684 82.495 281.23 168.919 367.221s209.498 142.874 367.221 168.919l280.483-280.798c-25.888-157.841-82.613-281.348-168.761-367.339zM942.605 648.836l-223.444 223.405c36.846 4.795 79.462 7.531 122.717 7.531 36.252 0 72.055-1.922 107.313-5.67l-4.386 0.378c2.548-30.053 4-65.036 4-100.359 0-44.123-2.266-87.716-6.688-130.67l0.449 5.386zM628.848 624.245c-4.784 4.774-11.387 7.726-18.679 7.726-14.605 0-26.444-11.839-26.444-26.444 0-7.312 2.968-13.931 7.765-18.718v0l14.063-14.063-40.894-40.933-14.063 14.063c-4.78 4.78-11.385 7.737-18.679 7.737-14.589 0-26.416-11.827-26.416-26.416 0-7.295 2.957-13.899 7.737-18.679l14.063-14.063-40.933-40.933-14.063 14.063c-4.78 4.78-11.385 7.737-18.679 7.737-14.589 0-26.416-11.827-26.416-26.416 0-7.295 2.957-13.899 7.737-18.679l14.063-14.063-41.13-41.287-14.063 14.063c-4.78 4.78-11.385 7.737-18.679 7.737-14.589 0-26.416-11.827-26.416-26.416 0-7.295 2.957-13.899 7.737-18.679l14.063-14.063-33.587-33.548c-4.78-4.78-7.737-11.385-7.737-18.679 0-14.589 11.827-26.416 26.416-26.416 7.295 0 13.899 2.957 18.679 7.737l33.587 33.587 14.063-14.063c7.15-7.15 22.156-15.203 37.358 0 4.785 4.778 7.745 11.383 7.745 18.679s-2.96 13.901-7.744 18.679v0l-14.063 14.063 40.933 41.051 14.063-14.063c7.15-7.15 22.156-15.203 37.358 0 4.785 4.778 7.745 11.383 7.745 18.679s-2.96 13.901-7.744 18.679v0l-14.063 14.063 40.933 40.933 14.063-14.063c7.15-7.15 22.156-15.203 37.358 0 4.785 4.778 7.745 11.383 7.745 18.679s-2.96 13.901-7.744 18.679v0l-14.063 14.063 40.933 40.933 14.063-14.063c7.15-7.15 22.156-15.203 37.358 0 4.785 4.778 7.745 11.383 7.745 18.679s-2.96 13.901-7.744 18.679v0l-14.063 14.063 33.587 33.587c4.78 4.78 7.737 11.385 7.737 18.679 0 14.589-11.827 26.416-26.416 26.416-7.295 0-13.899-2.957-18.679-7.737l-33.587-33.587z" />
<glyph unicode="&#xe90b;" glyph-name="beauty_verzorging" horiz-adv-x="1045" d="M728.157 518.101l-245.718 175.636 116.122 166.129 32.527-22.706-93.652-133.956 181.332-129.635 196.181 277.576 32.409-22.902-219.201-310.142zM340.705-50.29c-0.016 0-0.035 0-0.054 0-9.522 0-18.329 3.063-25.488 8.258l0.126-0.087-224.23 160.276c-11.207 8.111-18.413 21.151-18.413 35.875 0 9.518 3.012 18.333 8.134 25.544l-0.092-0.136 373.192 528.008c8.058 11.255 21.091 18.502 35.817 18.502 0.003 0 0.007 0 0.010 0h-0.001c0.024 0 0.052 0 0.081 0 9.526 0 18.337-3.063 25.501-8.258l-0.126 0.087 224.19-160.276c11.198-8.12 18.398-21.161 18.398-35.884 0-9.513-3.006-18.324-8.119-25.535l0.092 0.137-373.192-528.008c-8.058-11.255-21.091-18.502-35.817-18.502-0.003 0-0.007 0-0.010 0h0.001zM489.785 686.313c-0.012 0-0.026 0-0.040 0-1.385 0-2.612-0.676-3.369-1.717l-0.008-0.012-373.192-528.008c-0.483-0.708-0.771-1.583-0.771-2.525 0-1.467 0.699-2.77 1.782-3.595l0.011-0.008 224.19-160.276c0.638-0.467 1.438-0.747 2.304-0.747 0.019 0 0.037 0 0.056 0h-0.003c0.012 0 0.026 0 0.040 0 1.385 0 2.612 0.676 3.369 1.717l0.008 0.012 373.192 528.008c0.475 0.704 0.758 1.572 0.758 2.505 0 1.478-0.71 2.79-1.807 3.615l-0.012 0.008-224.19 160.276c-0.638 0.466-1.438 0.746-2.304 0.746-0.005 0-0.010 0-0.015 0h0.001zM724.228 754.194c-77.388 0-129.635 24.356-135.999 63.561-9.703 58.532 79.981 104.926 173.633 120.482 20.106 3.554 43.294 5.623 66.951 5.696h0.067c77.388 0 129.635-24.356 135.999-63.521 9.703-58.532-79.981-104.887-173.633-120.482-20.097-3.563-43.281-5.646-66.936-5.735h-0.082zM828.879 904.296c-21.502-0.069-42.513-1.952-62.952-5.505l2.22 0.319c-89.763-14.928-144.327-54.997-140.988-74.835 2.082-12.61 33.548-30.405 96.873-30.405 21.528 0.010 42.618 1.853 63.131 5.381l-2.203-0.313c89.763 14.928 144.327 54.997 140.988 74.835-2.082 12.728-33.548 30.523-97.069 30.523zM203.050 342.732l23.332 32.043 261.802-190.63-23.332-32.043-261.802 190.63z" />
<glyph unicode="&#xe90c;" glyph-name="baby_kinderen" horiz-adv-x="1045" d="M380.106 394.751c0-26.686-16.708-48.319-37.319-48.319s-37.319 21.633-37.319 48.319c0 26.686 16.708 48.319 37.319 48.319s37.319-21.633 37.319-48.319zM749.684 389.055c0-26.686-16.708-48.319-37.319-48.319s-37.319 21.633-37.319 48.319c0 26.686 16.708 48.319 37.319 48.319s37.319-21.633 37.319-48.319zM1024 710.315c0 0.048 0 0.105 0 0.162 0 88.8-71.987 160.787-160.787 160.787-51.255 0-96.908-23.982-126.351-61.338l-0.26-0.342c-57.486 29.924-125.531 47.477-197.675 47.477-81.937 0-158.587-22.641-224.033-62.008l1.965 1.096c-28.961 45.611-79.206 75.441-136.419 75.441-88.952 0-161.062-72.11-161.062-161.062 0-69.052 43.455-127.955 104.509-150.854l1.111-0.365c-14.397-41.466-22.712-89.26-22.712-138.996 0-241.168 195.506-436.674 436.674-436.674s436.674 195.506 436.674 436.674c0 55.086-10.2 107.789-28.814 156.325l1.008-2.991c45.892 28.922 75.982 79.26 76.17 136.639v0.028zM63.089 710.315c0.007 64.973 52.68 117.642 117.654 117.642 42.034 0 78.92-22.043 99.728-55.201l0.287-0.491c-60.117-44.589-107.715-102.755-138.761-170.12l-1.127-2.727c-45.729 16.707-77.782 59.832-77.782 110.443 0 0.16 0 0.319 0.001 0.479v-0.025zM538.929 26.784c-217.282 0-393.423 176.142-393.423 393.423s176.142 393.423 393.423 393.423c217.226 0 393.333-176.052 393.423-393.257v-0.009c-0.246-217.182-176.24-393.177-393.399-393.423h-0.024zM774.629 787.585c21.663 24.914 53.411 40.574 88.816 40.574 64.892 0 117.497-52.605 117.497-117.497 0-39.916-19.905-75.184-50.33-96.418l-0.382-0.252c-36.281 71.794-89.219 130.525-153.944 172.675l-1.697 1.036zM617.967 174.332c-17.756-6.442-41.562-11.785-54.329-1.1-7.857 6.521-10.803 18.11-11.785 29.227 0.167 2.478 0.262 5.373 0.262 8.289s-0.095 5.81-0.283 8.679l0.020-0.39c31.427 4.243 55.311 25.259 55.311 50.676 0 28.48-29.895 51.579-66.782 51.579s-66.782-23.099-66.782-51.579c0-23.57 20.899-43.565 49.222-49.536 0-0.236 0-0.511 0-0.746-0.171-2.502-0.268-5.423-0.268-8.367s0.097-5.865 0.289-8.76l-0.021 0.393c-0.943-11.156-3.928-22.902-11.785-29.423-12.767-10.803-36.612-5.382-54.368 1.1-1.466 0.55-3.161 0.868-4.93 0.868-7.975 0-14.44-6.465-14.44-14.44 0-6.206 3.915-11.498 9.41-13.54l0.1-0.033c13.064-5.302 28.197-8.591 44.037-9.070l0.196-0.005c0.633-0.025 1.375-0.039 2.122-0.039 13.948 0 26.746 4.922 36.754 13.123l-0.102-0.081c2.793 2.435 5.281 5.085 7.486 7.963l0.095 0.129c2.288-3.016 4.777-5.667 7.516-8.037l0.066-0.056c9.895-8.12 22.685-13.043 36.624-13.043 0.756 0 1.508 0.014 2.256 0.043l-0.108-0.003c16.002 0.472 31.109 3.733 45.040 9.309l-0.885-0.313c5.852 1.939 9.999 7.361 9.999 13.752 0 7.984-6.472 14.456-14.456 14.456-1.962 0-3.832-0.391-5.538-1.099l0.096 0.035z" />
<glyph unicode="&#xe90d;" glyph-name="alles" horiz-adv-x="1045" d="M1020.347 532.99l-478.236 406.779c-4.944 4.21-11.404 6.771-18.463 6.771s-13.519-2.561-18.503-6.804l0.040 0.033-479.65-408.547c-7.062-5.244-11.588-13.559-11.588-22.93 0-15.729 12.751-28.48 28.48-28.48 7.793 0 14.855 3.13 19.998 8.202l-0.003-0.003 3.928 3.221v-510.291c0-15.729 12.751-28.48 28.48-28.48v0h854.571c15.729 0 28.48 12.751 28.48 28.48v0 513.395l5.578-4.753c4.935-4.214 11.39-6.778 18.444-6.778 15.73 0 28.482 12.752 28.482 28.482 0 8.677-3.88 16.447-9.999 21.671l-0.039 0.033zM636.037 11.071h-227.844v332.18h227.844zM920.92 9.303h-227.844v362.586c0 15.729-12.751 28.48-28.48 28.48v0h-284.883c-15.729 0-28.48-12.751-28.48-28.48v0-362.546h-227.844v530.326l400.416 341.019 397.116-337.837z" />
<glyph unicode="&#xe90e;" glyph-name="lock" horiz-adv-x="658" d="M182.857 512h292.571v109.714c0 80.571-65.714 146.286-146.286 146.286s-146.286-65.714-146.286-146.286v-109.714zM658.286 457.143v-329.143c0-30.286-24.571-54.857-54.857-54.857h-548.571c-30.286 0-54.857 24.571-54.857 54.857v329.143c0 30.286 24.571 54.857 54.857 54.857h18.286v109.714c0 140.571 115.429 256 256 256s256-115.429 256-256v-109.714h18.286c30.286 0 54.857-24.571 54.857-54.857z" />
<glyph unicode="&#xe90f;" glyph-name="cross-thin" d="M1024 835.58l-408.913-408.913 408.913-408.913-103.087-103.087-408.913 408.913-408.913-408.913-103.087 103.087 408.913 408.913-408.913 408.913 103.087 103.087 408.913-408.913 408.913 408.913z" />
<glyph unicode="&#xe910;" glyph-name="keyboard_arrow_up" d="M120 134.667l-120 120 512 512 512-512-120-120-392 392z" />
<glyph unicode="&#xe911;" glyph-name="checkmark-thin" d="M337.237 183.638l617.131 617.131 81.92-81.92-699.051-699.051-324.949 324.949 81.92 81.92z" />
<glyph unicode="&#xe912;" glyph-name="keyboard_arrow_left" d="M828 34.667l-120-120-512 512 512 512 120-120-392-392z" />
<glyph unicode="&#xe986;" glyph-name="search" d="M992.262 88.604l-242.552 206.294c-25.074 22.566-51.89 32.926-73.552 31.926 57.256 67.068 91.842 154.078 91.842 249.176 0 212.078-171.922 384-384 384-212.076 0-384-171.922-384-384s171.922-384 384-384c95.098 0 182.108 34.586 249.176 91.844-1-21.662 9.36-48.478 31.926-73.552l206.294-242.552c35.322-39.246 93.022-42.554 128.22-7.356s31.892 92.898-7.354 128.22zM384 320c-141.384 0-256 114.616-256 256s114.616 256 256 256 256-114.616 256-256-114.614-256-256-256z" />
<glyph unicode="&#xe9a8;" glyph-name="hammer" d="M1010.174 44.25l-548.634 499.458 25.534 25.598c20.894 20.954 32.188 48.030 33.918 75.61 1.002 0.45 2.002 0.912 2.958 1.442l102.99 64.402c13.934 16.392 12.916 42.268-2.284 57.502l-179.12 179.608c-15.19 15.234-40.998 16.262-57.344 2.284l-64.236-103.268c-0.526-0.966-0.99-1.966-1.44-2.974-27.502-1.736-54.5-13.056-75.398-34.006l-97.428-97.702c-20.898-20.956-32.184-48.026-33.918-75.604-1.004-0.45-2.004-0.916-2.964-1.446l-102.986-64.406c-13.942-16.39-12.916-42.264 2.276-57.496l179.12-179.604c15.194-15.238 40.996-16.262 57.35-2.286l64.228 103.27c0.528 0.958 0.988 1.96 1.442 2.966 27.502 1.738 54.504 13.050 75.398 34.004l28.292 28.372 498.122-550.114c14.436-15.944 36.7-18.518 49.474-5.712l50.356 50.488c12.764 12.808 10.196 35.132-5.706 49.614z" />
<glyph unicode="&#xea0f;" glyph-name="cross" d="M1014.662 137.34c-0.004 0.004-0.008 0.008-0.012 0.010l-310.644 310.65 310.644 310.65c0.004 0.004 0.008 0.006 0.012 0.010 3.344 3.346 5.762 7.254 7.312 11.416 4.246 11.376 1.824 24.682-7.324 33.83l-146.746 146.746c-9.148 9.146-22.45 11.566-33.828 7.32-4.16-1.55-8.070-3.968-11.418-7.31 0-0.004-0.004-0.006-0.008-0.010l-310.648-310.652-310.648 310.65c-0.004 0.004-0.006 0.006-0.010 0.010-3.346 3.342-7.254 5.76-11.414 7.31-11.38 4.248-24.682 1.826-33.83-7.32l-146.748-146.748c-9.148-9.148-11.568-22.452-7.322-33.828 1.552-4.16 3.97-8.072 7.312-11.416 0.004-0.002 0.006-0.006 0.010-0.010l310.65-310.648-310.65-310.652c-0.002-0.004-0.006-0.006-0.008-0.010-3.342-3.346-5.76-7.254-7.314-11.414-4.248-11.376-1.826-24.682 7.322-33.83l146.748-146.746c9.15-9.148 22.452-11.568 33.83-7.322 4.16 1.552 8.070 3.97 11.416 7.312 0.002 0.004 0.006 0.006 0.010 0.010l310.648 310.65 310.648-310.65c0.004-0.002 0.008-0.006 0.012-0.008 3.348-3.344 7.254-5.762 11.414-7.314 11.378-4.246 24.684-1.826 33.828 7.322l146.746 146.748c9.148 9.148 11.57 22.454 7.324 33.83-1.552 4.16-3.97 8.068-7.314 11.414z" />
<glyph unicode="&#xea10;" glyph-name="checkmark" d="M864 832l-480-480-224 224-160-160 384-384 640 640z" />
<glyph unicode="&#xea8b;" glyph-name="google-plus" d="M325.8 502.6v-111.8h184.8c-7.4-48-55.8-140.6-184.8-140.6-111.2 0-202 92.2-202 205.8s90.8 205.8 202 205.8c63.4 0 105.6-27 129.8-50.2l88.4 85.2c-56.8 53-130.4 85.2-218.2 85.2-180.2-0.2-325.8-145.8-325.8-326s145.6-325.8 325.8-325.8c188 0 312.8 132.2 312.8 318.4 0 21.4-2.4 37.8-5.2 54h-307.6zM1024 512h-96v96h-96v-96h-96v-96h96v-96h96v96h96z" />
<glyph unicode="&#xea90;" glyph-name="facebook" d="M608 768h160v192h-160c-123.514 0-224-100.486-224-224v-96h-128v-192h128v-512h192v512h160l32 192h-192v96c0 17.346 14.654 32 32 32z" />
<glyph unicode="&#xea96;" glyph-name="twitter" d="M1024 733.6c-37.6-16.8-78.2-28-120.6-33 43.4 26 76.6 67.2 92.4 116.2-40.6-24-85.6-41.6-133.4-51-38.4 40.8-93 66.2-153.4 66.2-116 0-210-94-210-210 0-16.4 1.8-32.4 5.4-47.8-174.6 8.8-329.4 92.4-433 219.6-18-31-28.4-67.2-28.4-105.6 0-72.8 37-137.2 93.4-174.8-34.4 1-66.8 10.6-95.2 26.2 0-0.8 0-1.8 0-2.6 0-101.8 72.4-186.8 168.6-206-17.6-4.8-36.2-7.4-55.4-7.4-13.6 0-26.6 1.4-39.6 3.8 26.8-83.4 104.4-144.2 196.2-146-72-56.4-162.4-90-261-90-17 0-33.6 1-50.2 3 93.2-59.8 203.6-94.4 322.2-94.4 386.4 0 597.8 320.2 597.8 597.8 0 9.2-0.2 18.2-0.6 27.2 41 29.4 76.6 66.4 104.8 108.6z" />
<glyph unicode="&#xeaca;" glyph-name="linkedin" d="M384 576h177.106v-90.782h2.532c24.64 44.194 84.958 90.782 174.842 90.782 186.946 0 221.52-116.376 221.52-267.734v-308.266h-184.61v273.278c0 65.184-1.334 149.026-96.028 149.026-96.148 0-110.82-70.986-110.82-144.292v-278.012h-184.542v576zM64 576h192v-576h-192v576zM256 736c0-53.019-42.981-96-96-96s-96 42.981-96 96c0 53.019 42.981 96 96 96s96-42.981 96-96z" />
<glyph unicode="&#xf073;" glyph-name="calendar" horiz-adv-x="951" d="M73.143 0h164.571v164.571h-164.571v-164.571zM274.286 0h182.857v164.571h-182.857v-164.571zM73.143 201.143h164.571v182.857h-164.571v-182.857zM274.286 201.143h182.857v182.857h-182.857v-182.857zM73.143 420.571h164.571v164.571h-164.571v-164.571zM493.714 0h182.857v164.571h-182.857v-164.571zM274.286 420.571h182.857v164.571h-182.857v-164.571zM713.143 0h164.571v164.571h-164.571v-164.571zM493.714 201.143h182.857v182.857h-182.857v-182.857zM292.571 694.857v164.571c0 9.714-8.571 18.286-18.286 18.286h-36.571c-9.714 0-18.286-8.571-18.286-18.286v-164.571c0-9.714 8.571-18.286 18.286-18.286h36.571c9.714 0 18.286 8.571 18.286 18.286zM713.143 201.143h164.571v182.857h-164.571v-182.857zM493.714 420.571h182.857v164.571h-182.857v-164.571zM713.143 420.571h164.571v164.571h-164.571v-164.571zM731.429 694.857v164.571c0 9.714-8.571 18.286-18.286 18.286h-36.571c-9.714 0-18.286-8.571-18.286-18.286v-164.571c0-9.714 8.571-18.286 18.286-18.286h36.571c9.714 0 18.286 8.571 18.286 18.286zM950.857 731.428v-731.429c0-40-33.143-73.143-73.143-73.143h-804.571c-40 0-73.143 33.143-73.143 73.143v731.429c0 40 33.143 73.143 73.143 73.143h73.143v54.857c0 50.286 41.143 91.429 91.429 91.429h36.571c50.286 0 91.429-41.143 91.429-91.429v-54.857h219.429v54.857c0 50.286 41.143 91.429 91.429 91.429h36.571c50.286 0 91.429-41.143 91.429-91.429v-54.857h73.143c40 0 73.143-33.143 73.143-73.143z" />
<glyph unicode="&#xf0d1;" glyph-name="truck" horiz-adv-x="1061" d="M365.714 146.286c0 40-33.143 73.143-73.143 73.143s-73.143-33.143-73.143-73.143 33.143-73.143 73.143-73.143 73.143 33.143 73.143 73.143zM146.286 438.857h219.429v146.286h-90.286c-2.286 0-10.857-3.429-12.571-5.143l-111.429-111.429c-1.714-1.714-5.143-10.286-5.143-12.571v-17.143zM877.714 146.286c0 40-33.143 73.143-73.143 73.143s-73.143-33.143-73.143-73.143 33.143-73.143 73.143-73.143 73.143 33.143 73.143 73.143zM1024 768v-585.143c0-42.286-44.571-36.571-73.143-36.571 0-80.571-65.714-146.286-146.286-146.286s-146.286 65.714-146.286 146.286h-219.429c0-80.571-65.714-146.286-146.286-146.286s-146.286 65.714-146.286 146.286h-36.571c-28.571 0-73.143-5.714-73.143 36.571 0 20 16.571 36.571 36.571 36.571v182.857c0 40.571-5.714 85.714 25.714 117.143l113.143 113.143c14.286 14.286 41.714 25.714 62.286 25.714h91.429v109.714c0 20 16.571 36.571 36.571 36.571h585.143c20 0 36.571-16.571 36.571-36.571z" />
<glyph unicode="&#xf0f3;" glyph-name="bell" d="M521.143-18.286c0 5.143-4 9.143-9.143 9.143-45.143 0-82.286 37.143-82.286 82.286 0 5.143-4 9.143-9.143 9.143s-9.143-4-9.143-9.143c0-55.429 45.143-100.571 100.571-100.571 5.143 0 9.143 4 9.143 9.143zM987.429 146.286c0-40-33.143-73.143-73.143-73.143h-256c0-80.571-65.714-146.286-146.286-146.286s-146.286 65.714-146.286 146.286h-256c-40 0-73.143 33.143-73.143 73.143 84.571 71.429 182.857 199.429 182.857 475.429 0 109.714 90.857 229.714 242.286 252-2.857 6.857-4.571 14.286-4.571 22.286 0 30.286 24.571 54.857 54.857 54.857s54.857-24.571 54.857-54.857c0-8-1.714-15.429-4.571-22.286 151.429-22.286 242.286-142.286 242.286-252 0-276 98.286-404 182.857-475.429z" />
</font>
</defs>
</svg>
