<svg xmlns="http://www.w3.org/2000/svg" width="38" height="32" viewBox="0 0 38 32"><path d="M29.998 28.197a7.623 7.623 0 1 1-3.143-14.57l-1.014-2.283.165.399-6.944 9.321v1.869h1.017v1.018h-3.052v-1.018h1.018v-1.018l-2.877-.27c-.524 3.701-3.696 6.551-7.542 6.551A7.624 7.624 0 0 1 0 20.57a7.626 7.626 0 0 1 10.717-6.969l1.906-4.788-.865-2.416h-1.017c-.954 0-.699-1.017-.699-1.017s.063-.89.763-.89.699.636 1.843.636c1.095 0 2.669.317 2.669.317s.699.953-.635.953h-1.907l.723 2.597H24.55l-.868-1.973h-.675V6.004h4.067v1.017h-2.298l2.977 6.26a7.626 7.626 0 1 1 2.245 14.916zM7.627 13.96a6.61 6.61 0 1 0 0 13.219 6.604 6.604 0 0 0 6.53-5.639l-5.294-.545a1.003 1.003 0 0 1-.982.846 1.017 1.017 0 1 1 0-2.036c.12 0 .232.031.339.07l2.121-5.33a6.61 6.61 0 0 0-2.714-.585zm1.525 6.165l5.079.537c.001-.031.005-.061.005-.092a6.6 6.6 0 0 0-3.077-5.581l-2.007 5.136zm3.925-10.043l-1.543 3.948a7.614 7.614 0 0 1 3.719 6.541c0 .066-.008.133-.01.199l1.726.182-3.892-10.87zm11.901-.686v.614h-11.12l4.05 10.839 7.687-10.065-.617-1.388zm5.02 4.564c-.637 0-1.251.095-1.834.264l2.374 5.424c.482.078.858.48.858.984a1.017 1.017 0 1 1-2.035 0c0-.273.111-.521.289-.705l-2.384-5.372a6.604 6.604 0 0 0-3.879 6.014 6.61 6.61 0 1 0 6.611-6.609z"/></svg>