<svg width="40" height="24" viewBox="0 0 40 24" preserveAspectRatio="xMinYMin meet" xmlns="http://www.w3.org/2000/svg"><path d="M0 1.927C0 .863.892 0 1.992 0h36.016C39.108 0 40 .863 40 1.927v20.146C40 23.137 39.108 24 38.008 24H1.992C.892 24 0 23.137 0 22.073V1.927z" fill="#3e3939"/><path d="M22.205 3.901h-6.517v11.688h6.517" fill="#ff5f00"/><path d="M16.1 9.747a7.454 7.454 0 0 1 2.835-5.846 7.434 7.434 0 0 0-4.593-1.589c-4.119 0-7.45 3.324-7.45 7.434 0 4.107 3.331 7.432 7.45 7.432a7.417 7.417 0 0 0 4.593-1.59 7.413 7.413 0 0 1-2.836-5.843z" fill="#eb001b"/><path d="M30.996 9.747c0 4.107-3.333 7.432-7.449 7.432a7.408 7.408 0 0 1-4.593-1.59 7.387 7.387 0 0 0 2.834-5.843A7.453 7.453 0 0 0 18.954 3.9a7.426 7.426 0 0 1 4.593-1.589c4.116 0 7.449 3.346 7.449 7.434z" fill="#f79e1b"/><path d="M7.167 22.481V20.43c0-.789-.482-1.303-1.31-1.303-.414 0-.864.135-1.174.583-.243-.378-.587-.583-1.104-.583-.346 0-.691.103-.967.48v-.41h-.726v3.284h.726v-1.813c0-.582.309-.856.794-.856.482 0 .725.309.725.857v1.812h.725v-1.813c0-.582.348-.856.795-.856.486 0 .726.309.726.857v1.812h.794zm10.742-3.284h-1.175v-.993h-.727v.993h-.655v.648h.655v1.506c0 .755.312 1.2 1.139 1.2.313 0 .658-.102.898-.242l-.205-.614c-.207.136-.45.172-.623.172-.344 0-.482-.207-.482-.548v-1.472h1.175v-.649zm6.144-.07a.972.972 0 0 0-.862.48v-.41h-.726v3.284h.726v-1.848c0-.547.243-.856.691-.856.136 0 .31.035.448.07l.208-.685c-.137-.035-.346-.035-.486-.035zm-9.288.342c-.345-.24-.828-.342-1.347-.342-.83 0-1.382.411-1.382 1.061 0 .548.417.856 1.139.958l.349.035c.379.068.584.17.584.342 0 .242-.276.411-.758.411-.486 0-.866-.17-1.106-.342l-.346.547c.38.272.896.41 1.415.41.967 0 1.518-.444 1.518-1.061 0-.58-.448-.889-1.139-.992l-.344-.034c-.311-.034-.553-.102-.553-.307 0-.241.243-.378.623-.378.412 0 .827.172 1.035.275l.311-.583zm19.268-.342a.968.968 0 0 0-.862.48v-.41h-.726v3.284h.726v-1.848c0-.547.243-.856.691-.856.136 0 .308.035.445.07l.208-.685c-.135-.035-.343-.035-.482-.035zm-9.254 1.711c0 .996.691 1.713 1.761 1.713.485 0 .829-.102 1.175-.378l-.346-.58c-.277.205-.553.308-.865.308-.585 0-.999-.411-.999-1.061 0-.614.414-1.027 1.002-1.06.309 0 .585.103.862.309l.346-.582c-.346-.274-.691-.377-1.175-.377-1.07 0-1.761.72-1.761 1.711zm6.699 0v-1.64h-.728v.41c-.24-.308-.585-.48-1.033-.48-.933 0-1.659.72-1.659 1.712 0 .995.726 1.712 1.658 1.712.481 0 .827-.17 1.032-.478v.41h.729V20.84zm-2.66 0c0-.579.378-1.059 1.001-1.059.587 0 1.002.445 1.002 1.061 0 .584-.415 1.062-1.002 1.062-.623-.033-1.001-.478-1.001-1.061zm-8.67-1.71c-.965 0-1.654.685-1.654 1.712 0 1.029.689 1.712 1.691 1.712.486 0 .969-.135 1.348-.444l-.345-.513a1.666 1.666 0 0 1-.966.342c-.45 0-.899-.205-1.003-.788h2.452v-.271c.034-1.063-.588-1.748-1.521-1.748zm0 .62c.452 0 .763.271.832.784h-1.727c.068-.445.38-.784.895-.784zm17.993 1.092v-2.942h-.729v1.712c-.239-.308-.584-.48-1.032-.48-.934 0-1.659.72-1.659 1.711 0 .996.725 1.713 1.658 1.713.482 0 .827-.171 1.031-.478v.41h.73v-1.645zm-2.66 0c0-.579.38-1.06 1.003-1.06.585 0 1.002.446 1.002 1.061 0 .585-.417 1.063-1.002 1.063-.623-.034-1.003-.478-1.003-1.061zm-24.244 0V19.2h-.722v.41c-.243-.308-.587-.48-1.037-.48-.933 0-1.658.72-1.658 1.711 0 .996.725 1.713 1.657 1.713.483 0 .827-.171 1.035-.478v.41h.724v-1.645zm-2.691 0c0-.579.38-1.06 1.002-1.06.586 0 1.002.446 1.002 1.061 0 .585-.416 1.063-1.002 1.063-.622-.034-1.002-.478-1.002-1.061z" fill="#fff"/></svg>