<svg xmlns="http://www.w3.org/2000/svg" width="130.709" height="24" viewBox="0 0 34.583333 6.3500003"><path d="M12 .51c0-.282.236-.51.527-.51h9.53c.29 0 .526.228.526.51v5.33c0 .282-.236.51-.527.51h-9.529A.519.519 0 0 1 12 5.84z" fill="#21569a"/><path d="M17.185 2.086l-.558 2.508h-.677l.558-2.508h.676zm2.842 1.62l.356-.942.204.941h-.56zm.754.888h.625l-.546-2.508h-.576c-.13 0-.24.073-.288.184l-1.014 2.324h.71l.14-.374h.867l.083.374zm-1.764-.819c.003-.662-.952-.698-.946-.994.002-.09.091-.186.286-.21a1.33 1.33 0 0 1 .666.112l.119-.532a1.884 1.884 0 0 0-.632-.11c-.668 0-1.138.34-1.142.828-.004.361.336.562.591.683.264.123.352.201.351.311-.002.168-.21.243-.404.246-.34.005-.537-.088-.694-.159l-.122.55c.158.07.45.13.751.133.71 0 1.174-.337 1.177-.858zM16.22 2.086l-1.095 2.508h-.715l-.538-2.001c-.032-.123-.06-.169-.16-.22a2.92 2.92 0 0 0-.667-.214l.016-.073h1.15c.146 0 .278.094.311.256l.285 1.451.702-1.706h.71z" fill="#fff"/><path d="M0 .51C0 .228.236 0 .527 0h9.53c.29 0 .526.228.526.51v5.33c0 .282-.236.51-.527.51H.527A.519.519 0 0 1 0 5.84z" fill="#3e3939"/><path d="M5.875 1.032H4.151v3.093h1.724" fill="#ff5f00"/><path d="M4.26 2.579c0-.629.296-1.186.75-1.547a1.968 1.968 0 1 0 0 3.092 1.961 1.961 0 0 1-.75-1.546z" fill="#eb001b"/><path d="M8.201 2.579a1.968 1.968 0 0 1-3.186 1.546 1.972 1.972 0 0 0 0-3.093A1.972 1.972 0 0 1 8.2 2.578z" fill="#f79e1b"/><path d="M1.896 5.948v-.543c0-.208-.127-.344-.346-.344a.36.36 0 0 0-.311.154.32.32 0 0 0-.292-.154.296.296 0 0 0-.256.127v-.109H.5v.87h.192v-.48c0-.155.082-.227.21-.227s.192.082.192.227v.48h.192v-.48c0-.155.092-.227.21-.227.129 0 .192.082.192.227v.48h.21zm2.842-.869h-.31v-.263h-.193v.263h-.173v.172h.173v.398c0 .2.083.318.302.318a.502.502 0 0 0 .237-.064L4.72 5.74a.306.306 0 0 1-.165.046c-.091 0-.127-.055-.127-.145v-.39h.31V5.08zm1.626-.018a.257.257 0 0 0-.228.127v-.109h-.192v.87h.192v-.49c0-.145.064-.226.183-.226a.53.53 0 0 1 .118.018l.055-.181c-.036-.01-.091-.01-.128-.01zm-2.457.09a.63.63 0 0 0-.357-.09c-.22 0-.365.108-.365.28 0 .145.11.227.3.254l.093.01c.1.017.155.044.155.09 0 .064-.073.108-.2.108a.504.504 0 0 1-.293-.09l-.092.145a.65.65 0 0 0 .374.108c.256 0 .402-.117.402-.28 0-.154-.118-.236-.301-.263l-.091-.01c-.083-.008-.147-.026-.147-.08 0-.064.065-.1.165-.1.11 0 .219.045.274.072l.082-.154zm5.098-.09a.256.256 0 0 0-.229.127v-.109h-.192v.87h.192v-.49c0-.145.065-.226.183-.226.036 0 .082.009.118.018l.055-.181c-.036-.01-.09-.01-.127-.01zm-2.449.452c0 .264.183.454.466.454a.45.45 0 0 0 .31-.1l-.09-.154a.373.373 0 0 1-.23.082c-.154 0-.264-.11-.264-.281 0-.163.11-.272.265-.28.082 0 .155.027.228.081l.092-.154a.458.458 0 0 0-.311-.1c-.283 0-.466.191-.466.453zm1.773 0V5.08h-.193v.109a.33.33 0 0 0-.273-.127.436.436 0 0 0-.44.453c0 .263.193.453.44.453.127 0 .218-.045.272-.127v.109h.193v-.435zm-.704 0c0-.153.1-.28.265-.28.155 0 .265.118.265.28 0 .155-.11.282-.265.282a.267.267 0 0 1-.265-.28zM5.33 5.061c-.255 0-.438.181-.438.453s.183.453.448.453a.56.56 0 0 0 .356-.118l-.091-.135a.44.44 0 0 1-.256.09c-.119 0-.237-.054-.265-.208h.649v-.072c.009-.281-.156-.463-.403-.463zm0 .164c.12 0 .202.072.22.207h-.457c.018-.117.1-.207.237-.207zm4.76.289v-.778H9.9v.452a.329.329 0 0 0-.273-.127.436.436 0 0 0-.44.453c0 .264.192.453.44.453.127 0 .218-.045.272-.126v.108h.193v-.435zm-.703 0c0-.153.1-.28.265-.28.155 0 .265.117.265.28 0 .155-.11.281-.265.281a.268.268 0 0 1-.265-.28zm-6.415 0V5.08h-.19v.108a.332.332 0 0 0-.275-.127.436.436 0 0 0-.439.453c0 .264.192.453.438.453.128 0 .22-.045.274-.126v.108h.192v-.435zm-.712 0c0-.153.1-.28.265-.28.155 0 .265.117.265.28 0 .155-.11.281-.265.281a.268.268 0 0 1-.265-.28z" fill="#fff"/><path d="M34.142 6.35h-9.7A.434.434 0 0 1 24 5.927V.423c0-.233.198-.423.441-.423h9.701c.243 0 .441.19.441.423v5.504a.434.434 0 0 1-.44.423z" fill="#1477be"/><path d="M25.656 3.26h.612l-.306-.704m5.275.084h-.989v.325h.97v.366h-.972v.367h1.01v.266c.166-.204.353-.388.537-.592l.187-.203c-.248-.266-.495-.55-.742-.814v.285z" fill="#fff"/><path d="M34.12 1.852h-1.483l-.351.37-.33-.37h-3.462l-.27.64-.288-.64h-2.535l-1.07 2.514h1.277l.164-.412h.37l.166.412h5.627l.351-.393.351.393h1.483L32.967 3.13zm-4.679 2.143h-.412v-1.38l-.618 1.38h-.351l-.618-1.38-.022 1.38h-.846l-.164-.411h-.866l-.186.411h-.453l.763-1.792h.64l.7 1.65V2.204h.7l.558 1.193.494-1.193h.681zm3.897 0h-.536l-.535-.598-.536.598h-1.894V2.203h1.976l.475.576.536-.576h.535l-.824.906z" fill="#fff"/></svg>