<svg xmlns="http://www.w3.org/2000/svg" viewBox="0 0 319.77 44.53"><defs><style>.cls-1{fill:#fff}.cls-2{opacity:.8}</style></defs><title>Asset 1</title><g id="Layer_2" data-name="Layer 2"><g id="Layer_1-2" data-name="Layer 1"><path class="cls-1" d="M239.57 23.06h-.07a.73.73 0 0 1 0-.25l-.22-.23v-.62l-.4-.23v-.17a9.3 9.3 0 0 0-1.33-1.35l-.07-.37-.25-.18h-.57l.07-.07L236 19l-.7-.49a1.26 1.26 0 0 1-.68-.27 1.76 1.76 0 0 0-.35-.12 2.28 2.28 0 0 0-1.12-.64 1.15 1.15 0 0 0-.7-.22h-.1l-.3-.12h-.25l-.43-.27h-.15l-.27-.41-.73.1-.32-.19-1-.21h-.9l-.1-.2-.62.13a.72.72 0 0 1-.27-.06.67.67 0 0 0-.23-.06 5 5 0 0 0-1.3.2 1.86 1.86 0 0 0-1.15.52l.17.78q.2.85.65.85l1-.07.55-.25.15.07.15.35v.77l.23.55V20l-.05.57.13 1.5-.35.7.35.5-.23.28v.52l-.07.3.07 1.15a.7.7 0 0 0-.1.35.64.64 0 0 0 .07.25v.05a2.57 2.57 0 0 0-1.19.57l-.36.32.2.57.47.33h.68l.35-.2.18.13v.3l-.1.87h.52l.32.28.76-.89.15-.39.05-.49.3-.07.28.1.45.1.32-.32.18-.08.32.13.38-.1h.26a4.18 4.18 0 0 0 1.18-.22.43.43 0 0 0 .18 0 4.09 4.09 0 0 0 .88-.15l-.12-.08.47.05.18-.07.43.05a1.24 1.24 0 0 1 .32-.18s.06 0 .13.1a1.11 1.11 0 0 0 .93-.37h.65l.15-.23h.22l.45-.25.7-.2.18-.23.52-.22.18-.37.5-.68.07-.37.1-.25a.19.19 0 0 1 0-.07v-.08a.87.87 0 0 0-.25-.5zm-1.73.88l-.65.48H237l-.35.25-.18.07-.4-.1-.28.38a1 1 0 0 0-.3.07.79.79 0 0 0-.3-.07 1.28 1.28 0 0 0-.7.25l-.4.1a.46.46 0 0 1-.37.13h-.4q.27 0-.93.08a2.35 2.35 0 0 1-1.12.35 1.91 1.91 0 0 0-.65-.1 2 2 0 0 0-.65.1l-.85.13h-.25v-.1l.2-.35-.17-.3v-.5l-.22-.35.32-.39-.18-.56.28-.76-.18-.15q.1-.51.1-.56V21l.2-.08-.2-.66v-.43a2.62 2.62 0 0 0-.17-.61l.17-.2-.3-.61h.13l.18-.4a.75.75 0 0 1 .53.25h.45l.3.2v.08q0 .11.27.11a.65.65 0 0 0 .2 0l.32.07.13.1h.47l.07.2a1.1 1.1 0 0 0 .67.22h.25l1.77 1 .22.4.75.22.12.1.07.3a4.53 4.53 0 0 0 .75.4l.27.67h.36l.77 1 .07.47v.2zm11.1 1.68h-.1a1.23 1.23 0 0 0-.9.35.64.64 0 0 1-.58.52l-.07.12a.81.81 0 0 0-.32.3l-.62.2h-.12l-.25.37h-.15l-.25.17-.5.07h-.85l-.2-.05v-.08l-.55-.15-.18-.15a.51.51 0 0 1-.3-.29.37.37 0 0 1-.2-.33v-.08a.23.23 0 0 0 0-.08 3.84 3.84 0 0 0 0-.48l.2-.03q0-.18-.05-.78l.15-.43v-.3l.2-.15a5.47 5.47 0 0 1 .1-.6h.05l.45.23.6-.25h.4l.47-.3h.08a.77.77 0 0 0 .7-.35 12.14 12.14 0 0 0 1.47-.93v-.4l.47-.52.25-.65.23-.15-.07-.82.07-.25A1.53 1.53 0 0 0 248 18v-.1l-.43-.32a3.94 3.94 0 0 1-.6-.37l-.17-.1h-.12a.75.75 0 0 0-.37-.1 3.92 3.92 0 0 0-.85.23l-.1.15-.25.1a1.09 1.09 0 0 0-.3.32 5.91 5.91 0 0 0-.54.31 1.9 1.9 0 0 0-.16.24h-.2l-.05.13h-.2a3.12 3.12 0 0 0-.15.58l-.1.1a3.13 3.13 0 0 0-.55 1.05.71.71 0 0 0-.22.23h-.07a.65.65 0 0 1-.58-.3 1.49 1.49 0 0 0-.15.63 1.91 1.91 0 0 0 .09.44 2 2 0 0 1 .09.41.35.35 0 0 1 0 .15 1 1 0 0 0-.37.75l.08.6v.13a1.06 1.06 0 0 0-.12.48v-.05l-.17.3v.17l-.12.4v.52l-.15.4v.89l.3 1.09v.37l.3.2.15.42.3.15v.07a1.42 1.42 0 0 0 1.2.72l.2.12h.43a1.12 1.12 0 0 0 .55.13h.3l.35.3a.81.81 0 0 1 .63-.42h.22l.15-.19a2 2 0 0 0 .45-.13h.3l.25-.45.48-.3.45-.07.28-.48h.15a1.56 1.56 0 0 0 .38-.65 1.23 1.23 0 0 0 .45-.75 1.57 1.57 0 0 0-.47-.9zm-2.05-6l-.32.48-.05.22-.07.08-.33.07v.27h-.17l-.12.38-.28-.1h-.15l-.2.3h-.35l-.07.23-.18.07a1.14 1.14 0 0 0-.62.18l.1-.18a1.41 1.41 0 0 0 .35-.73l.23-.15.4-.7.28-.2.42-.55.13-.05h.23l.25-.17h.47a1.23 1.23 0 0 1 .08.3.81.81 0 0 1-.05.3zm10.86 5.51a1 1 0 0 0-.63-.26.72.72 0 0 1-.5.13.57.57 0 0 0-.42.53l-.47.4a.9.9 0 0 0-.57.38l-.15.07a.64.64 0 0 1-.4.25h-.07a.79.79 0 0 0-.22.05h-.22l-.15.2-.32-.1h-.22a1.12 1.12 0 0 0-.27-.4v-.12l-.15-.33v-.37l-.08-.35v-.7a1 1 0 0 1 .05-.18v-.7l.13-.58-.07-.12.1-1.1-.1-.48.18-.52v-.53l.15-.8v-.23a1 1 0 0 0 .13-.4 1 1 0 0 0-.08-.28l.08-.27-.2-.28v-.15a2.54 2.54 0 0 0 .05-.4 2.29 2.29 0 0 0 .13-.78l.17-.52-.1-.48-.07-.52a1.66 1.66 0 0 0 .17-.62v-.1l.1-.52-.37-.37v-.2a.72.72 0 0 0-.63-.43 4.11 4.11 0 0 1-.9.25l-.15 1.5v1.68l.08.2-.08 1.07v2.32l-.27.35.15.5-.15.38v.43l-.07.63-.22.38.22.45q0 .28-.12 1.32a.72.72 0 0 0 .07.32l-.07.15v.95l.13.93.21.22.1.5a.61.61 0 0 1 .28.53v.07l.15.25.45.25a1.77 1.77 0 0 0 .75.1 2.14 2.14 0 0 0 1.1-.25h.17a.57.57 0 0 0 .32-.12 1.49 1.49 0 0 1 .77-.5l.1-.1h.25l.35-.23.22-.1.22-.3.25-.18a2.6 2.6 0 0 0 .65-.62.57.57 0 0 0 .2-.45 1.3 1.3 0 0 0-.14-.71zm4-14.69l-.2.6-.15.15-.08.05a1.1 1.1 0 0 0-.42.73l-.3.05v.22l-.4.1v.38l-.15.1v.1a.79.79 0 0 0-.4.6l-.27.45-.07.63.4.38.65-.58.4-.2.25-.36.58-.14.25-.32.38-.45a1.73 1.73 0 0 0 .83-.65q.4-.25.4-.55 0-.82-1.65-1.22zm3.82 14h-.1a2 2 0 0 0-1.13.4l-.48.22-.23.1-.07.2h-.05l-.05.17h-.15l-.25.25-.15-.1-.07.1-.05.13h-.18l-.1.15-.27.27-.32.1h-.2l-.05.08h-.3l-.37-.3-.05-.45.05-.57v-.25l.15-.35V24a7.05 7.05 0 0 0 .13-1l.32-.95-.1-.3a1.19 1.19 0 0 0 .3-.8l-.18-.35.18-1.25a.78.78 0 0 0 0-.32 1.82 1.82 0 0 0-.1-.57v-.1a.68.68 0 0 0-.68-.55 1.49 1.49 0 0 0-.37.13h-.3q-.67 0-.68.55a1.34 1.34 0 0 0 .08.43.55.55 0 0 1 0 .14.85.85 0 0 1-.05.14 1.56 1.56 0 0 0 .13.5v.07l-.05.58-.15.47a1 1 0 0 1 .2.32l-.12.58a5.69 5.69 0 0 0-.15.92 3.69 3.69 0 0 0 .07.73l-.1.1-.3 2.2.1.3v1.22l.48 1 1 .75.4-.3h.5l.18-.22h.13a1.79 1.79 0 0 0 .78-.3l.22-.3a.74.74 0 0 0 .73-.47l.3-.07.32-.35.22-.07a1.38 1.38 0 0 0 .53-.62l.4-.12.13-.35.13-.1q.2-.15.2-.73a.89.89 0 0 0-.38-.45zm12.93-8.25l-.7.43-.12.07a1.6 1.6 0 0 0-.3.48 1.47 1.47 0 0 1-.5.6h-.12v.53l-.18.23-.22.7a.9.9 0 0 0-.35.58l-.23.3-.32.78-.18.05-.12.55-.17.33v.05a.69.69 0 0 0-.28.55v.08l-.1.05-.12-.15-.18.45a.54.54 0 0 0-.12.28l-.05.13-.27.13v.32l-.1.07-.15.32-.25.2-.2.5-.32.48a.91.91 0 0 0-.48.5v-.07s-.13.17-.25.5a.33.33 0 0 0-.2-.07q-.1 0-.18.15l.07.2-.2.07c-.05.13-.11.2-.18.2h-.05l-.25-.25-.32-1-.4-.8-.05-.37-.27-1V23l-.2-.1v-.23l-.13-.13-.21-.61-.06-.3.15-.4-.4-.3v-.22a1.56 1.56 0 0 0-.35.1l-.07-.57a3.62 3.62 0 0 0-1.62-1.85q-1.08.43-1.07 1.13a.94.94 0 0 0 .63 1l.2.32.35.3.2.82.45.35.18.45.13.17v.28l.2.35-.05.25.65 1.45v.63l.28.27v.6l.15.1.05.3.88 1.27-.07-.17a1.56 1.56 0 0 0 1.23.7q.85 0 1.63-1.35l.5-.52.15-.25.45-.28.28-.22a2.15 2.15 0 0 1-.05-.32l.18-.12.07-.28.3-.4.17-.1.05-.45a.71.71 0 0 0 .4-.6v-.25l.47-.77.57-1.32.4-.35a2 2 0 0 0 0-.32l.23-.35.23-.8a.82.82 0 0 0 .43-.55h.08l.08-.54.23-.17.1-.52.37-.23-.09-.48.25-.43-.55-.76zm8.57 9.4H287a1.23 1.23 0 0 0-.9.35.64.64 0 0 1-.58.52l-.07.12a.81.81 0 0 0-.32.3l-.62.2h-.12l-.25.37h-.15l-.25.17-.5.07h-.85l-.2-.05v-.08l-.55-.15-.18-.15a.51.51 0 0 1-.25-.38.37.37 0 0 1-.2-.33v-.08a.23.23 0 0 0 0-.08 3.84 3.84 0 0 0 0-.48l.08-.08q0-.18-.05-.78l.15-.43v-.3l.2-.15a5.47 5.47 0 0 1 .1-.6h.05l.45.23.6-.25h.4l.47-.3h.08a.77.77 0 0 0 .7-.35 12.14 12.14 0 0 0 1.47-.93v-.4l.47-.52.25-.65.23-.15-.07-.82.07-.25a1.53 1.53 0 0 0-.57-1.27v-.1l-.43-.32a3.94 3.94 0 0 1-.6-.37l-.17-.1h-.12a.75.75 0 0 0-.37-.1 3.92 3.92 0 0 0-.85.23l-.1.15-.25.1a1.09 1.09 0 0 0-.3.32 5.91 5.91 0 0 0-.54.31 1.9 1.9 0 0 0-.16.24h-.2l-.05.13h-.2a3.12 3.12 0 0 0-.15.58l-.1.1a3.13 3.13 0 0 0-.55 1.05.71.71 0 0 0-.22.23h-.07a.65.65 0 0 1-.58-.3 1.49 1.49 0 0 0-.15.63 1.91 1.91 0 0 0 .09.44 2 2 0 0 1 .09.41.35.35 0 0 1 0 .15 1 1 0 0 0-.37.75l.08.6v.13a1.06 1.06 0 0 0-.12.48v-.05l-.17.3v.17l-.12.4v.52l-.15.4v.89l.3 1.09v.37l.3.2.15.42.3.15v.07a1.42 1.42 0 0 0 1.2.72l.2.12h.43a1.12 1.12 0 0 0 .55.13h.3l.35.3a.81.81 0 0 1 .63-.42h.22l.15-.19a2 2 0 0 0 .45-.13h.27l.25-.45.48-.3.45-.07.28-.48h.15a1.56 1.56 0 0 0 .38-.65 1.23 1.23 0 0 0 .45-.75 1.57 1.57 0 0 0-.47-.9zm-2.05-6l-.32.48-.05.22-.07.08-.33.07v.27h-.17l-.12.38-.28-.1h-.15l-.2.3h-.35l-.07.23-.18.07a1.14 1.14 0 0 0-.62.18l.1-.18a1.41 1.41 0 0 0 .35-.73l.23-.15.4-.7.28-.2.42-.55.13-.05h.23l.25-.17h.47a1.23 1.23 0 0 1 .08.3.81.81 0 0 1-.05.3zm12.85-.95l-.35-.05a.55.55 0 0 0-.35.1.77.77 0 0 1-.3.1h-.37l-.6.2-.43.27-.3.15-.1.15-.2.1h-.15l-.15.18-.28.15-.1.15-.07.07-.25.05-.23.35-.05.07a1.58 1.58 0 0 0-.62.45l-.2.38-.27.3-.05.3-.35.2-.1.38a.49.49 0 0 0-.23.23l-.1.38a.71.71 0 0 1-.17.38l-.05-.25-.07-.1.1-.25.05-.55-.07-.5a.57.57 0 0 0 .13-.33 1.16 1.16 0 0 0-.05-.27l-.07-.4q-.1-.6-.18-1.1l.07-.68-.25-.32-.12-.48-.62-.12q-1.1.35-1.1.85a.56.56 0 0 0 .13.38v.2l.1.6.1.15-.12.4.22.32.1.45-.1.15a.86.86 0 0 1 .1.5 2.57 2.57 0 0 1 0 .4l.1.32-.1.27.15.25-.07.58.05.17-.05.3.07.32-.07.08q0 .63.05.75a.81.81 0 0 0-.18.45.55.55 0 0 0 .18.4V27a1.07 1.07 0 0 0 0 .2 5.24 5.24 0 0 0 0 .6l-.07.38.1.22v.6l.93.38.7-.35.3-.22.32-.57-.43-.45-.05-.23a.41.41 0 0 1 0-.12v-.1a2.13 2.13 0 0 0-.05-.35l.32-.45-.15-.32.25-.43v-.32l.38-.15-.08-.32.07-.07v-.37l.2-.07v-.37l.2-.25.15-.3.35-.12a5.93 5.93 0 0 1 .17-.6l.13-.05.35-.57a3.22 3.22 0 0 0 .57-.52h.18l.35-.46.52-.26v-.1l.25-.17.38-.15.35-.19.32.15.5-.32.93-.12.2-.82a.66.66 0 0 0-.72-.6zm13.92 4.55v-1.03l-.05-.55.05-.4v-.4l-.05-.15q0-.15.05-.23v-.3l.15-.4-.25-.43-.07-.65-.8-.77q-.8 0-1 .52v-.07.1l-.1.25v-.07a1.23 1.23 0 0 0-.3.68.9.9 0 0 0 .17.43v.1l.17.45v.08l-.17.1v.78l-.35.73a.88.88 0 0 1-.48.35l-.27.45-.45.47v.07h-.13l-.3.32-.15.1h-.13l-.2.3-.35.13-.18.27-.1.32-.35.23.13-.07-.1.2-1.77 1v.33a2.33 2.33 0 0 0-1 .45 1.23 1.23 0 0 0-.37.25h-.72l-.18.25v-.15l-.17.05-.23-.2-.05-.3.05-.1-.05-.4.18-.32-.18-.45v-.25a2.69 2.69 0 0 1 0-.32l.22-.27.1-.87.15-.15v-1l.15-1.07v-.05l.18-.27-.15-.65.3-.55-.32-.27.09-.25-.23-.38q0-.22.13-.6l-.42-.3-.23-.5a1.42 1.42 0 0 0-.45-.07 1.33 1.33 0 0 0-.6.15 3.3 3.3 0 0 1-.1.8l-.3.8.1.15v.18l.18.9-.07.63.07.68a5.14 5.14 0 0 0-.18 1.23v.17l-.1.2.1.52-.17.3v.25l-.2.15.13.55-.15.25.1.3v.75l.32.9V28l.55.82a1.5 1.5 0 0 0 1.18.48 1.34 1.34 0 0 0 1-.35l.08-.05h.27l.2-.15.43-.1.52-.35.38-.05.1-.18.55-.18.1-.25.25-.25h.23l.75-.55.07-.12.25-.08.68-.7.48-.57.35-.3V25l.22-.12.07-.3.2-.07.3-.3.3-.22.28-.45v.88l.2.58v.55l-.12.18.13.32v1.78l-.18.52.18.32v2.8l-.15.3.15.38v.4l-.1.07-.08 1v.08l-.21.42-.08.18-.36.2a1.61 1.61 0 0 1-.13.55.89.89 0 0 0-.41.43q-.31.1-.33.25v.2l-.1.1-.25-.07-.12.2-.18.1a1 1 0 0 0-.35.08l-.52.3h-.48l-.77.25-1.2.05-.2-.18h-.35l-.28-.23h-.45l-.69-.53h-.37l-.68-.52-.12-.37-.55-.35-.17-.4-.1-.25.2-.35v-.37l.33-.27.15-.25h.37l.22-.43.37-.1.37-.28.35-.18a.76.76 0 0 0 .22-.5q0-.4-.57-.67a.88.88 0 0 0-.65.25h-.65l-.68.52-.35.09-.45.33-.25.4-.1-.05-.15.43-.25.13V33a3.45 3.45 0 0 0-.18 1 4.54 4.54 0 0 0 .22 1v.48l.72.45.4.57.47.18.2.38.3.07.15.43.45.05.13.22.85.13 1 .32.15.15h.38l.82.15h.3l.82-.15.45.15.48-.35.45.1.13-.2h.25l.2-.2.35-.15.07-.07a.94.94 0 0 0 .18-.15 1.08 1.08 0 0 0 .7-.62l.43-.23.25-.37.22-.3.08-.07a1.13 1.13 0 0 1 .25-.15l.17-.62a4.15 4.15 0 0 0 .55-1.23l.1-.22v-.18l.2-.25-.05-.43.05-.12v-.43l.1-.2-.15-.45.05-1.57-.05-.25v-1.3l.05-.18-.05-1.1.05-.32v-.45l.15-.95-.13-.9v-.15a5.86 5.86 0 0 0 .18-.62l-.18-.62zm7.25-6.84v-.08l.08-.15a.78.78 0 0 0 0-.23 2.84 2.84 0 0 0 0-.43l-.12-.35-.93-.28-.4.1-.72-.1-.1 1.18.28.23v.65a1.25 1.25 0 0 0 0 .2v.18a.45.45 0 0 0-.07.23 1.07 1.07 0 0 0 .07.25v.35l-.07.25.1.28-.16.37.18.25v.15l.1.07a1.61 1.61 0 0 0-.07.38v1.08l-.1.58.25.1-.15.65.15.25-.15.27.17.5.05.55v.47q0 1 .74 1 .57 0 .71-.68v-.18a.55.55 0 0 0 .08-.33V24l.15-.07-.14-.43a1.56 1.56 0 0 0-.08-.5l.16-.25-.13-.51.11-.64-.14-.25.08-2v-.22a1.77 1.77 0 0 0 .05-.3 2.13 2.13 0 0 0-.05-.35l.1-.22a2.57 2.57 0 0 1-.13-.45h-.1l.09-.27h.14l.09-.43.09-.08-.2-.63zm.49 10.78l-.17-.33-.52-.08.2-.13a1 1 0 0 0-.58-.13 2.25 2.25 0 0 0-.55-.13l-.25.25h-.1l-.37.35-.2.63.3.95h.52l.35.2.38-.18.42.18.65-.49a1.8 1.8 0 0 1 .05-.31l.07-.36-.21-.46zM42.75 33.85a2.58 2.58 0 0 1-.75 1.59 2.41 2.41 0 0 1-3.23 0c-1.32-1-2.62-2-3.93-3l-1.65-1.26-9.83-7.51-.48-.36-.79 1.12-1.54 2.18-1.18-.83-8.08-5.68 6.08-8.65.15-.22.28-.39 9.2 6.55-.56.8-1.74 2.48a3.21 3.21 0 0 0 .31.24l10.56 6.79a19.14 19.14 0 1 0-3.38 4.52l.2.15 1.84 1.4c1.46 1.12 2.91 2.24 4.38 3.35a2.69 2.69 0 0 0 3.6-.05 2.59 2.59 0 0 0 .54-3.22zM18.11 7.68a1.74 1.74 0 0 1 1.69-1.12 7.34 7.34 0 0 1 .88.45q4.51 3.15 9 6.32a1.64 1.64 0 0 1 .77 1.82 1.57 1.57 0 0 1-1.17 1.16 1.41 1.41 0 0 1-.29 0 2 2 0 0 1-1.07-.31q-4.61-3.19-9.17-6.42a1.83 1.83 0 0 1-.35-.32 1.52 1.52 0 0 1-.29-1.58zm2 22.2A1.73 1.73 0 0 1 18.5 31a5.43 5.43 0 0 1-.85-.41q-4.55-3.17-9.08-6.37a1.62 1.62 0 0 1-.49-2.34 1.54 1.54 0 0 1 1.65-.61 2 2 0 0 1 .72.31l8 5.6 1.08.76a1.6 1.6 0 0 1 .62 1.94z"/><g class="cls-2"><path class="cls-1" d="M112.69 17.41a.82.82 0 0 0-.37.14l-.56.33-1.09.67a13.32 13.32 0 0 1-2.58 1 7.89 7.89 0 0 0-1.58-5 4.31 4.31 0 0 0-3.32-1.9 5.2 5.2 0 0 0-3.09.93 5.48 5.48 0 0 0-4.71 2.74 10.27 10.27 0 0 0-1.84 5.83v.07a24.74 24.74 0 0 1-2 3.28q-1.39 1.93-2.18 2-.51 0-.51-2.85t.19-6.65q3.67-7.48 3.67-13.51a4.56 4.56 0 0 0-.37-1.74 1.26 1.26 0 0 0-1.21-.91q-3.57 0-4.55 7.38a127.21 127.21 0 0 0-1.15 13.08 25.37 25.37 0 0 1-2 3.29q-1.39 1.93-2.18 2-.51 0-.51-2.85t.18-6.74q3.67-7.48 3.67-13.51a4.62 4.62 0 0 0-.37-1.74A1.26 1.26 0 0 0 83 1.81q-3.57 0-4.55 7.38c-.64 5-1 9.05-1.13 12.3a25.51 25.51 0 0 1-2.2 3.51 7.15 7.15 0 0 1-2 1.86 4.86 4.86 0 0 1-2.51.65 3.06 3.06 0 0 1-2.44-1.32A5.94 5.94 0 0 1 66.91 23a9.3 9.3 0 0 0 5.73-2A5.77 5.77 0 0 0 75 16.39 2.91 2.91 0 0 0 74 14a3.91 3.91 0 0 0-2.6-.86 6.83 6.83 0 0 0-5.53 2.6 10.82 10.82 0 0 0-2.09 6.34 25.55 25.55 0 0 1-2 3.43q-1.39 1.93-2.18 2c-.19 0-.28-.35-.28-1s.15-2.37.44-5a59.94 59.94 0 0 0 .44-6 2 2 0 0 0-.77-1.63 2.63 2.63 0 0 0-1.74-.65 3.32 3.32 0 0 0-2.2 1.35 29.22 29.22 0 0 0-3 4.23c-1.18 1.92-1.83 3-1.95 3.16v-3.62A22.79 22.79 0 0 0 53.25 13a20.49 20.49 0 0 0 1.35-7.52 6.45 6.45 0 0 0-.46-2.65c-.31-.68-.62-1-.93-1a3.26 3.26 0 0 0-2 .74Q47 5.8 47 17.69v2.7q0 1.58-.26 4.71c-.17 2.09-.26 3.31-.26 3.67s.34.63 1 .84a7.59 7.59 0 0 0 2.14.3c.49 0 .74-.43.74-1.3v-1.44a18.17 18.17 0 0 1 .28-3.06q.11-.89 2.36-4.11t2.81-3.18c.36 0 .53.51.53 1.53s-.08 2.56-.26 4.62-.26 3.54-.26 4.46a2.74 2.74 0 0 0 .33 1.7 4.33 4.33 0 0 0 2.74.74c1.36 0 3-1.77 4.88-5.24a7.12 7.12 0 0 0 1.44 3.27 5 5 0 0 0 4.13 2q4.5 0 7.57-5l.38-.64c0 2.9.18 4.53.46 4.87a2.38 2.38 0 0 0 1 .49 6.6 6.6 0 0 0 1.88.26c1.33 0 2.92-1.69 4.75-5 0 2.52.19 3.95.45 4.26a2.38 2.38 0 0 0 1 .49 6.6 6.6 0 0 0 1.88.26c1.39 0 3.06-1.83 5-5.44a8.84 8.84 0 0 0 1.28 3.14 5 5 0 0 0 4.41 2.3 7.69 7.69 0 0 0 6.08-2.42 10.58 10.58 0 0 0 2.52-6.3 16 16 0 0 0 3.57-1.88q1.44-1 1.44-1.46c.05-.28-.08-.42-.32-.42zm-21.5-14c.25 0 .37.49.37 1.48q0 3.72-2.42 10.08.66-11.58 2.05-11.58zm-8.13 0c.25 0 .37.49.37 1.48q0 3.72-2.42 10.08.66-11.58 2.05-11.58zm-15 13.54q1.12-2.26 2.74-2.25c.9 0 1.35.7 1.35 2.09a4.64 4.64 0 0 1-1.28 3.39 7.19 7.19 0 0 1-4 1.76 12 12 0 0 1 1.24-5.02zM51.21 9.7q.79-5.15 1.63-5.15c.34 0 .51.65.51 1.95q0 3.85-2.74 9.57.18-3.63.6-6.37zm52.56 16.41a3.52 3.52 0 0 1-3.11 1.7 3.06 3.06 0 0 1-2.93-2 10 10 0 0 1-.93-4.25q0-4.64 2-6.22a6.3 6.3 0 0 0-.51 2.66 3.69 3.69 0 0 0 1.49 2.81 5.37 5.37 0 0 0 3.62 1.27l1.67-.09a8.59 8.59 0 0 1-1.3 4.13zm.79-5.87a4 4 0 0 1-2.76-1.07 3.58 3.58 0 0 1-1.18-2.78 2.76 2.76 0 0 1 .42-1.46 1.3 1.3 0 0 1 1.16-.67q1.48 0 2.16 1.86a13.88 13.88 0 0 1 .77 4.13z"/></g><path class="cls-1" d="M128.82 17.69a10.17 10.17 0 0 0-3-2.58q-1.74-1-3.48-1.86a13.4 13.4 0 0 1-3-2 3.32 3.32 0 0 1-1.23-2.56A3.88 3.88 0 0 1 119.53 6a4.49 4.49 0 0 1 3.23-1.32q3.21 0 3.39 2.51l-.23 1.2c0 .47.37.7 1 .7a1.79 1.79 0 0 0 1.51-.74 3 3 0 0 0 .57-1.9 3.1 3.1 0 0 0-1.91-2.83 9.09 9.09 0 0 0-4.13-.93 10.37 10.37 0 0 0-6.06 1.86 5.77 5.77 0 0 0-2.67 5 4.59 4.59 0 0 0 1.25 3.16 11.44 11.44 0 0 0 3 2.37l3.58 1.92a11.54 11.54 0 0 1 3 2.3 4.32 4.32 0 0 1 1.25 3 5.71 5.71 0 0 1-1.83 4.27 6.14 6.14 0 0 1-4.41 1.77 5.82 5.82 0 0 1-4-1.25 3.83 3.83 0 0 1-1.46-2.78q0-1.35 1.58-1.35c.55 0 .84-.23.84-.7a1.72 1.72 0 0 0-.74-1.11 2.32 2.32 0 0 0-1.35-.42 3.62 3.62 0 0 0-2.92 1.2 4.06 4.06 0 0 0-1 2.7 4.45 4.45 0 0 0 2.51 4.16 13 13 0 0 0 6.27 1.37 11.67 11.67 0 0 0 7-2.37 7.6 7.6 0 0 0 3.25-6.5 5.68 5.68 0 0 0-1.23-3.6zm15.58-2.76a4.27 4.27 0 0 0-3.4-1.75 4 4 0 0 0-3.24 1.82 23.62 23.62 0 0 0-2.69 5.53 16.63 16.63 0 0 1 .28-2.42 7.34 7.34 0 0 0 1-3.6c0-1.22-.22-1.84-.65-1.84a3.2 3.2 0 0 0-1.77 1 15 15 0 0 0-1.62 1.56q-.09.09-.21 5.29t-.44 9.56a51.24 51.24 0 0 0-2 12.31 4.74 4.74 0 0 0 .23 1.39c.16.49.41.74.77.74a3.3 3.3 0 0 0 1.67-1 4 4 0 0 0 1.23-1.41 67.59 67.59 0 0 0 1-13.51 6.13 6.13 0 0 0 3.57 1.3 6.56 6.56 0 0 0 5.6-2.9 10.89 10.89 0 0 0 2.11-6.62q0-3.71-1.44-5.45zm-3.16 11.42q-1.43 1.88-2.78 1.88a5.09 5.09 0 0 1-3.76-1.3q0-.74.09-2 2.83-9.24 5.06-9.24 1.3 0 2.07 1.65a10.68 10.68 0 0 1 .76 4.41 7.39 7.39 0 0 1-1.44 4.6zm22.12-8.75c-.17 0-.33.13-.46.37s-.33.65-.58 1.21q-.45 1.07-1 2.05A25.52 25.52 0 0 1 159 25a7.15 7.15 0 0 1-2 1.86 4.88 4.88 0 0 1-2.51.65 3 3 0 0 1-2.49-1.35 5.9 5.9 0 0 1-1.24-3.16 9.29 9.29 0 0 0 5.74-2 5.75 5.75 0 0 0 2.34-4.66 2.91 2.91 0 0 0-1-2.35 3.92 3.92 0 0 0-2.6-.86 6.83 6.83 0 0 0-5.53 2.6q-2.14 2.6-2.13 7.66a7.1 7.1 0 0 0 1.53 4.48 5 5 0 0 0 4.13 2q4.5 0 7.57-5l.38-.64q2.45-4.17 2.45-6.33c-.02-.18-.11-.3-.28-.3zM152 16.92q1.12-2.26 2.74-2.25 1.35 0 1.35 2.09a4.64 4.64 0 0 1-1.28 3.39 7.18 7.18 0 0 1-4 1.76 12 12 0 0 1 1.19-4.99z"/><path class="cls-1" d="M176.78 17.6c-.17 0-.33.13-.46.37s-.33.65-.58 1.21c-.34.78-.7 1.54-1.08 2.26A26 26 0 0 1 172.4 25a7.15 7.15 0 0 1-2 1.86 4.91 4.91 0 0 1-2.53.65 2.83 2.83 0 0 1-2.44-1.51 6.78 6.78 0 0 1-1-3.83 11.32 11.32 0 0 1 1.25-4.94q1.25-2.58 3-2.58a1 1 0 0 1 .84.42 1.48 1.48 0 0 1 .32.93l-.37 2.37c0 .59.26.88.79.88a1.91 1.91 0 0 0 1.58-.88 4.52 4.52 0 0 0 .65-2.69 2.29 2.29 0 0 0-.86-1.74 3.4 3.4 0 0 0-2.34-.77 7.26 7.26 0 0 0-5.83 2.76 10.29 10.29 0 0 0-2.11 5.28 19.15 19.15 0 0 0-.19 2.77v.29a6.74 6.74 0 0 0 1.37 3.73 4.65 4.65 0 0 0 4 1.88 7.46 7.46 0 0 0 5.81-2.6 18.59 18.59 0 0 0 1.83-2.39c.1-.16.21-.34.32-.53q.63-1.07 1.47-2.74A8.48 8.48 0 0 0 177 18c0-.28 0-.4-.22-.4z"/><path class="cls-1" d="M178.62 4.92a2.89 2.89 0 0 0-1.58.6 1.74 1.74 0 0 0-.88 1.48c0 2 .3 2.92.88 2.92a2.41 2.41 0 0 0 2.09-1 4.17 4.17 0 0 0 .74-2.48q0-1.52-1.25-1.52zm6.11 12.67q-.3 0-1.67 3l-.44.94a27 27 0 0 1-2.33 4q-1.39 1.93-2.18 2-.28 0-.28-1.25 0-6.5.6-8a7.38 7.38 0 0 0 .57-1.98 11.81 11.81 0 0 0 .26-1.81c0-1.18-.22-1.77-.67-1.77a3.47 3.47 0 0 0-1.88 1 9 9 0 0 0-1.44 1.39 27.54 27.54 0 0 0-.53 5c0 .44-.06.86-.08 1.26q-.1 1.68-.16 2.95c0 1-.07 1.84-.07 2.46a4.48 4.48 0 0 0 .33 2.32 4.33 4.33 0 0 0 2.74.74q2.14 0 5.12-5.69.51-1 1-2.11A11.25 11.25 0 0 0 185 18c0-.28-.07-.4-.28-.4z"/><path class="cls-1" d="M202.83 17.6q-.3 0-1.67 3-.4.88-.8 1.67a24.57 24.57 0 0 1-2 3.28c-.93 1.28-1.66 1.94-2.18 2q-.28 0-.28-1.25 0-6.5.42-7.57a7.36 7.36 0 0 0 .58-1.95 12.26 12.26 0 0 0 .26-1.81c0-1.18-.23-1.77-.67-1.77a2.92 2.92 0 0 0-1.63.72 6.64 6.64 0 0 0-1.32 1.23q-1.86-2-3.35-2a6.57 6.57 0 0 0-5.55 2.88 10.66 10.66 0 0 0-2.06 5.49c0 .37-.05.74-.05 1.13 0 .54 0 1.05.07 1.53a7.29 7.29 0 0 0 1.4 3.98 4.08 4.08 0 0 0 3.25 1.74 3.74 3.74 0 0 0 3-1.46 18 18 0 0 0 2.39-4.44c-.06 1.49-.09 2.67-.09 3.55a2.61 2.61 0 0 0 .33 1.65 4.31 4.31 0 0 0 2.74.74q2 0 4.75-5 .69-1.25 1.43-2.82a11.29 11.29 0 0 0 1.33-4.12c0-.28-.13-.4-.3-.4zm-9.7.91c0 .6-.09 1-.12 1.28q-3 7.66-4.5 7.66-1.25 0-2-1.67a10.26 10.26 0 0 1-.77-4.27 7.27 7.27 0 0 1 1.44-4.51q1.47-2 2.77-2a3.54 3.54 0 0 1 1.84.67 4.29 4.29 0 0 1 1.46 1.42c-.04.35-.08.81-.12 1.41z"/><path class="cls-1" d="M211 17.6q-.3 0-1.67 3a28.86 28.86 0 0 1-2.76 4.95q-1.39 1.93-2.18 2-.51 0-.51-2.85T204 18q3.67-7.47 3.67-13.51a4.56 4.56 0 0 0-.37-1.74 1.26 1.26 0 0 0-1.21-.91q-3.57 0-4.55 7.38a128.45 128.45 0 0 0-1.15 13.09v2.65q.06 3.77.45 4.24a2.35 2.35 0 0 0 1 .48 6.52 6.52 0 0 0 1.88.26q2.51 0 6.18-7.8a11.29 11.29 0 0 0 1.36-4.14c0-.28-.1-.4-.26-.4zm-4.9-14.21c.25 0 .37.49.37 1.48q0 3.72-2.41 10.08.65-11.56 2.04-11.56z"/></g></g></svg>